<?xml version="1.0" encoding="us-ascii" standalone="no"?><svg xmlns="http://www.w3.org/2000/svg" xmlns:xlink="http://www.w3.org/1999/xlink" contentStyleType="text/css" height="488px" preserveAspectRatio="none" style="width:776px;height:488px;background:#FFFFFF;" version="1.1" viewBox="0 0 776 488" width="776px" zoomAndPan="magnify"><defs/><g><rect fill="#FFFFFF" height="286.1953" style="stroke:#181818;stroke-width:1.0;" width="10" x="181" y="112.4297"/><rect fill="#FFFFFF" height="29.1328" style="stroke:#181818;stroke-width:1.0;" width="10" x="327" y="112.4297"/><rect fill="#FFFFFF" height="248.0625" style="stroke:#181818;stroke-width:1.0;" width="10" x="433" y="141.5625"/><rect fill="#FFFFFF" height="29.1328" style="stroke:#181818;stroke-width:1.0;" width="10" x="672" y="295.2266"/><rect fill="#FFFFFF" height="269.1953" style="stroke:#181818;stroke-width:1.0;" width="10" x="737.5" y="91.2969"/><rect fill="none" height="104.5313" style="stroke:#000000;stroke-width:1.5;" width="705" x="10" y="227.8281"/><line style="stroke:#181818;stroke-width:0.5;stroke-dasharray:5.0,5.0;" x1="44" x2="44" y1="81.2969" y2="407.625"/><line style="stroke:#181818;stroke-width:0.5;stroke-dasharray:5.0,5.0;" x1="186" x2="186" y1="81.2969" y2="407.625"/><line style="stroke:#181818;stroke-width:0.5;stroke-dasharray:5.0,5.0;" x1="332" x2="332" y1="81.2969" y2="407.625"/><line style="stroke:#181818;stroke-width:0.5;stroke-dasharray:5.0,5.0;" x1="437.5" x2="437.5" y1="81.2969" y2="407.625"/><line style="stroke:#181818;stroke-width:0.5;stroke-dasharray:5.0,5.0;" x1="677" x2="677" y1="81.2969" y2="407.625"/><line style="stroke:#181818;stroke-width:0.5;stroke-dasharray:5.0,5.0;" x1="742" x2="742" y1="81.2969" y2="407.625"/><text fill="#000000" font-family="sans-serif" font-size="14" lengthAdjust="spacing" textLength="42" x="20" y="77.9951">Guest</text><ellipse cx="44" cy="13.5" fill="#E2E2F0" rx="8" ry="8" style="stroke:#181818;stroke-width:0.5;"/><path d="M44,21.5 L44,48.5 M31,29.5 L57,29.5 M44,48.5 L31,63.5 M44,48.5 L57,63.5 " fill="none" style="stroke:#181818;stroke-width:0.5;"/><text fill="#000000" font-family="sans-serif" font-size="14" lengthAdjust="spacing" textLength="42" x="20" y="419.6201">Guest</text><ellipse cx="44" cy="431.4219" fill="#E2E2F0" rx="8" ry="8" style="stroke:#181818;stroke-width:0.5;"/><path d="M44,439.4219 L44,466.4219 M31,447.4219 L57,447.4219 M44,466.4219 L31,481.4219 M44,466.4219 L57,481.4219 " fill="none" style="stroke:#181818;stroke-width:0.5;"/><rect fill="#E2E2F0" height="30.2969" rx="2.5" ry="2.5" style="stroke:#181818;stroke-width:0.5;" width="216" x="78" y="50"/><text fill="#000000" font-family="sans-serif" font-size="14" lengthAdjust="spacing" textLength="202" x="85" y="69.9951">HotelManagementApplication</text><rect fill="#E2E2F0" height="30.2969" rx="2.5" ry="2.5" style="stroke:#181818;stroke-width:0.5;" width="216" x="78" y="406.625"/><text fill="#000000" font-family="sans-serif" font-size="14" lengthAdjust="spacing" textLength="202" x="85" y="426.6201">HotelManagementApplication</text><rect fill="#E2E2F0" height="30.2969" rx="2.5" ry="2.5" style="stroke:#181818;stroke-width:0.5;" width="56" x="304" y="50"/><text fill="#000000" font-family="sans-serif" font-size="14" lengthAdjust="spacing" textLength="42" x="311" y="69.9951">Guest</text><rect fill="#E2E2F0" height="30.2969" rx="2.5" ry="2.5" style="stroke:#181818;stroke-width:0.5;" width="56" x="304" y="406.625"/><text fill="#000000" font-family="sans-serif" font-size="14" lengthAdjust="spacing" textLength="42" x="311" y="426.6201">Guest</text><rect fill="#E2E2F0" height="30.2969" rx="2.5" ry="2.5" style="stroke:#181818;stroke-width:0.5;" width="105" x="385.5" y="50"/><text fill="#000000" font-family="sans-serif" font-size="14" lengthAdjust="spacing" textLength="91" x="392.5" y="69.9951">RoomFacade</text><rect fill="#E2E2F0" height="30.2969" rx="2.5" ry="2.5" style="stroke:#181818;stroke-width:0.5;" width="105" x="385.5" y="406.625"/><text fill="#000000" font-family="sans-serif" font-size="14" lengthAdjust="spacing" textLength="91" x="392.5" y="426.6201">RoomFacade</text><rect fill="#E2E2F0" height="30.2969" rx="2.5" ry="2.5" style="stroke:#181818;stroke-width:0.5;" width="56" x="649" y="50"/><text fill="#000000" font-family="sans-serif" font-size="14" lengthAdjust="spacing" textLength="42" x="656" y="69.9951">Guest</text><rect fill="#E2E2F0" height="30.2969" rx="2.5" ry="2.5" style="stroke:#181818;stroke-width:0.5;" width="56" x="649" y="406.625"/><text fill="#000000" font-family="sans-serif" font-size="14" lengthAdjust="spacing" textLength="42" x="656" y="426.6201">Guest</text><rect fill="#E2E2F0" height="30.2969" rx="2.5" ry="2.5" style="stroke:#181818;stroke-width:0.5;" width="55" x="715" y="50"/><text fill="#000000" font-family="sans-serif" font-size="14" lengthAdjust="spacing" textLength="41" x="722" y="69.9951">Room</text><rect fill="#E2E2F0" height="30.2969" rx="2.5" ry="2.5" style="stroke:#181818;stroke-width:0.5;" width="55" x="715" y="406.625"/><text fill="#000000" font-family="sans-serif" font-size="14" lengthAdjust="spacing" textLength="41" x="722" y="426.6201">Room</text><rect fill="#FFFFFF" height="286.1953" style="stroke:#181818;stroke-width:1.0;" width="10" x="181" y="112.4297"/><rect fill="#FFFFFF" height="29.1328" style="stroke:#181818;stroke-width:1.0;" width="10" x="327" y="112.4297"/><rect fill="#FFFFFF" height="248.0625" style="stroke:#181818;stroke-width:1.0;" width="10" x="433" y="141.5625"/><rect fill="#FFFFFF" height="29.1328" style="stroke:#181818;stroke-width:1.0;" width="10" x="672" y="295.2266"/><rect fill="#FFFFFF" height="269.1953" style="stroke:#181818;stroke-width:1.0;" width="10" x="737.5" y="91.2969"/><polygon fill="#181818" points="315,108.4297,325,112.4297,315,116.4297,319,112.4297" style="stroke:#181818;stroke-width:1.0;"/><line style="stroke:#181818;stroke-width:1.0;" x1="191" x2="321" y1="112.4297" y2="112.4297"/><text fill="#000000" font-family="sans-serif" font-size="13" lengthAdjust="spacing" textLength="77" x="198" y="107.3638">add_guest()</text><polygon fill="#181818" points="421,137.5625,431,141.5625,421,145.5625,425,141.5625" style="stroke:#181818;stroke-width:1.0;"/><line style="stroke:#181818;stroke-width:1.0;" x1="332" x2="427" y1="141.5625" y2="141.5625"/><text fill="#000000" font-family="sans-serif" font-size="13" lengthAdjust="spacing" textLength="77" x="339" y="136.4966">add_guest()</text><polygon fill="#181818" points="421,166.6953,431,170.6953,421,174.6953,425,170.6953" style="stroke:#181818;stroke-width:1.0;"/><line style="stroke:#181818;stroke-width:1.0;" x1="44" x2="427" y1="170.6953" y2="170.6953"/><text fill="#000000" font-family="sans-serif" font-size="13" lengthAdjust="spacing" textLength="271" x="51" y="165.6294">Enter room number and number of people</text><line style="stroke:#181818;stroke-width:1.0;" x1="443" x2="485" y1="199.8281" y2="199.8281"/><line style="stroke:#181818;stroke-width:1.0;" x1="485" x2="485" y1="199.8281" y2="212.8281"/><line style="stroke:#181818;stroke-width:1.0;" x1="444" x2="485" y1="212.8281" y2="212.8281"/><polygon fill="#181818" points="454,208.8281,444,212.8281,454,216.8281,450,212.8281" style="stroke:#181818;stroke-width:1.0;"/><text fill="#000000" font-family="sans-serif" font-size="13" lengthAdjust="spacing" textLength="194" x="450" y="194.7622">find_index_by_room_number()</text><path d="M10,227.8281 L87,227.8281 L87,234.9609 L77,244.9609 L10,244.9609 L10,227.8281 " fill="#EEEEEE" style="stroke:#000000;stroke-width:1.5;"/><rect fill="none" height="104.5313" style="stroke:#000000;stroke-width:1.5;" width="705" x="10" y="227.8281"/><text fill="#000000" font-family="sans-serif" font-size="13" font-weight="bold" lengthAdjust="spacing" textLength="32" x="25" y="240.895">loop</text><text fill="#000000" font-family="sans-serif" font-size="11" font-weight="bold" lengthAdjust="spacing" textLength="207" x="102" y="240.0386">[while there is additional guest]</text><polygon fill="#181818" points="421,262.0938,431,266.0938,421,270.0938,425,266.0938" style="stroke:#181818;stroke-width:1.0;"/><line style="stroke:#181818;stroke-width:1.0;" x1="44" x2="427" y1="266.0938" y2="266.0938"/><text fill="#000000" font-family="sans-serif" font-size="13" lengthAdjust="spacing" textLength="325" x="51" y="261.0278">enter firstname and lastname for additional guests</text><polygon fill="#181818" points="660,291.2266,670,295.2266,660,299.2266,664,295.2266" style="stroke:#181818;stroke-width:1.0;"/><line style="stroke:#181818;stroke-width:1.0;" x1="443" x2="666" y1="295.2266" y2="295.2266"/><text fill="#000000" font-family="sans-serif" font-size="13" lengthAdjust="spacing" textLength="210" x="450" y="290.1606">new Guest(firstName, lastName)</text><polygon fill="#181818" points="454,320.3594,444,324.3594,454,328.3594,450,324.3594" style="stroke:#181818;stroke-width:1.0;"/><line style="stroke:#181818;stroke-width:1.0;" x1="448" x2="676" y1="324.3594" y2="324.3594"/><text fill="#000000" font-family="sans-serif" font-size="13" lengthAdjust="spacing" textLength="157" x="460" y="319.2935">add to guest list of room</text><polygon fill="#181818" points="730.5,356.4922,740.5,360.4922,730.5,364.4922,734.5,360.4922" style="stroke:#181818;stroke-width:1.0;"/><line style="stroke:#181818;stroke-width:1.0;" x1="443" x2="736.5" y1="360.4922" y2="360.4922"/><text fill="#000000" font-family="sans-serif" font-size="13" lengthAdjust="spacing" textLength="193" x="450" y="355.4263">setCurGuestNum(guest_num)</text><polygon fill="#181818" points="202,385.625,192,389.625,202,393.625,198,389.625" style="stroke:#181818;stroke-width:1.0;"/><line style="stroke:#181818;stroke-width:1.0;stroke-dasharray:2.0,2.0;" x1="196" x2="437" y1="389.625" y2="389.625"/><text fill="#000000" font-family="sans-serif" font-size="13" lengthAdjust="spacing" textLength="127" x="208" y="384.5591">adding confirmation</text><!--SRC=[TPB1ReCm38RlUGghfrRQNe33f6eQz48Fl01omRIHGXA5q6vlFySPLUcsI22Z-F_zsGQxw09KCqrHUGnHTzgZZR0vk4YcHejd6id6lVT6TnYrinl02GxrVfql5d9LhoyQvyOIE-n9RfloFrtrMvSLAXqk2AzlK4C1sFVjEScsEuLTr5UCn5NlOM9JTSfkogVqdluIC9DWiAGf2_YmaG84hWzs7aySe-sNq0tWoNb3YisbH063jdtB3tssfwys2TkSpHMDSnvk5sq8ueK2WPuIaKwJH0C2fe3FGf2XIHW67QPeSIGXCFZpCV3AdZqcCSbCLG6MRjbnAnv7bhs8GOfsadjllyhrbsxO6QBBhc0qlxZdr9IaFKomKfIekC67KIvZAM2Y-3u7WJZEurRyqbnMMyZB5H6hqf85GDipTCuo-oZ_t4fIVWC0]--></g></svg>