<?xml version="1.0" encoding="us-ascii" standalone="no"?><svg xmlns="http://www.w3.org/2000/svg" xmlns:xlink="http://www.w3.org/1999/xlink" contentStyleType="text/css" height="517px" preserveAspectRatio="none" style="width:777px;height:517px;background:#FFFFFF;" version="1.1" viewBox="0 0 777 517" width="777px" zoomAndPan="magnify"><defs/><g><rect fill="#FFFFFF" height="315.3281" style="stroke:#181818;stroke-width:1.0;" width="10" x="181" y="112.4297"/><rect fill="#FFFFFF" height="29.1328" style="stroke:#181818;stroke-width:1.0;" width="10" x="327" y="112.4297"/><rect fill="#FFFFFF" height="277.1953" style="stroke:#181818;stroke-width:1.0;" width="10" x="434" y="141.5625"/><rect fill="#FFFFFF" height="29.1328" style="stroke:#181818;stroke-width:1.0;" width="10" x="673" y="295.2266"/><rect fill="#FFFFFF" height="29.1328" style="stroke:#181818;stroke-width:1.0;" width="10" x="738.5" y="360.4922"/><rect fill="none" height="104.5313" style="stroke:#000000;stroke-width:1.5;" width="706" x="10" y="227.8281"/><line style="stroke:#181818;stroke-width:0.5;stroke-dasharray:5.0,5.0;" x1="44" x2="44" y1="81.2969" y2="436.7578"/><line style="stroke:#181818;stroke-width:0.5;stroke-dasharray:5.0,5.0;" x1="186" x2="186" y1="81.2969" y2="436.7578"/><line style="stroke:#181818;stroke-width:0.5;stroke-dasharray:5.0,5.0;" x1="332" x2="332" y1="81.2969" y2="436.7578"/><line style="stroke:#181818;stroke-width:0.5;stroke-dasharray:5.0,5.0;" x1="438.5" x2="438.5" y1="81.2969" y2="436.7578"/><line style="stroke:#181818;stroke-width:0.5;stroke-dasharray:5.0,5.0;" x1="678" x2="678" y1="81.2969" y2="436.7578"/><line style="stroke:#181818;stroke-width:0.5;stroke-dasharray:5.0,5.0;" x1="743" x2="743" y1="81.2969" y2="436.7578"/><text fill="#000000" font-family="sans-serif" font-size="14" lengthAdjust="spacing" textLength="42" x="20" y="77.9951">Guest</text><ellipse cx="44" cy="13.5" fill="#E2E2F0" rx="8" ry="8" style="stroke:#181818;stroke-width:0.5;"/><path d="M44,21.5 L44,48.5 M31,29.5 L57,29.5 M44,48.5 L31,63.5 M44,48.5 L57,63.5 " fill="none" style="stroke:#181818;stroke-width:0.5;"/><text fill="#000000" font-family="sans-serif" font-size="14" lengthAdjust="spacing" textLength="42" x="20" y="448.7529">Guest</text><ellipse cx="44" cy="460.5547" fill="#E2E2F0" rx="8" ry="8" style="stroke:#181818;stroke-width:0.5;"/><path d="M44,468.5547 L44,495.5547 M31,476.5547 L57,476.5547 M44,495.5547 L31,510.5547 M44,495.5547 L57,510.5547 " fill="none" style="stroke:#181818;stroke-width:0.5;"/><rect fill="#E2E2F0" height="30.2969" rx="2.5" ry="2.5" style="stroke:#181818;stroke-width:0.5;" width="216" x="78" y="50"/><text fill="#000000" font-family="sans-serif" font-size="14" lengthAdjust="spacing" textLength="202" x="85" y="69.9951">HotelManagementApplication</text><rect fill="#E2E2F0" height="30.2969" rx="2.5" ry="2.5" style="stroke:#181818;stroke-width:0.5;" width="216" x="78" y="435.7578"/><text fill="#000000" font-family="sans-serif" font-size="14" lengthAdjust="spacing" textLength="202" x="85" y="455.7529">HotelManagementApplication</text><rect fill="#E2E2F0" height="30.2969" rx="2.5" ry="2.5" style="stroke:#181818;stroke-width:0.5;" width="56" x="304" y="50"/><text fill="#000000" font-family="sans-serif" font-size="14" lengthAdjust="spacing" textLength="42" x="311" y="69.9951">Guest</text><rect fill="#E2E2F0" height="30.2969" rx="2.5" ry="2.5" style="stroke:#181818;stroke-width:0.5;" width="56" x="304" y="435.7578"/><text fill="#000000" font-family="sans-serif" font-size="14" lengthAdjust="spacing" textLength="42" x="311" y="455.7529">Guest</text><rect fill="#E2E2F0" height="30.2969" rx="2.5" ry="2.5" style="stroke:#181818;stroke-width:0.5;" width="105" x="386.5" y="50"/><text fill="#000000" font-family="sans-serif" font-size="14" lengthAdjust="spacing" textLength="91" x="393.5" y="69.9951">RoomFacade</text><rect fill="#E2E2F0" height="30.2969" rx="2.5" ry="2.5" style="stroke:#181818;stroke-width:0.5;" width="105" x="386.5" y="435.7578"/><text fill="#000000" font-family="sans-serif" font-size="14" lengthAdjust="spacing" textLength="91" x="393.5" y="455.7529">RoomFacade</text><rect fill="#E2E2F0" height="30.2969" rx="2.5" ry="2.5" style="stroke:#181818;stroke-width:0.5;" width="56" x="650" y="50"/><text fill="#000000" font-family="sans-serif" font-size="14" lengthAdjust="spacing" textLength="42" x="657" y="69.9951">Guest</text><rect fill="#E2E2F0" height="30.2969" rx="2.5" ry="2.5" style="stroke:#181818;stroke-width:0.5;" width="56" x="650" y="435.7578"/><text fill="#000000" font-family="sans-serif" font-size="14" lengthAdjust="spacing" textLength="42" x="657" y="455.7529">Guest</text><rect fill="#E2E2F0" height="30.2969" rx="2.5" ry="2.5" style="stroke:#181818;stroke-width:0.5;" width="55" x="716" y="50"/><text fill="#000000" font-family="sans-serif" font-size="14" lengthAdjust="spacing" textLength="41" x="723" y="69.9951">Room</text><rect fill="#E2E2F0" height="30.2969" rx="2.5" ry="2.5" style="stroke:#181818;stroke-width:0.5;" width="55" x="716" y="435.7578"/><text fill="#000000" font-family="sans-serif" font-size="14" lengthAdjust="spacing" textLength="41" x="723" y="455.7529">Room</text><rect fill="#FFFFFF" height="315.3281" style="stroke:#181818;stroke-width:1.0;" width="10" x="181" y="112.4297"/><rect fill="#FFFFFF" height="29.1328" style="stroke:#181818;stroke-width:1.0;" width="10" x="327" y="112.4297"/><rect fill="#FFFFFF" height="277.1953" style="stroke:#181818;stroke-width:1.0;" width="10" x="434" y="141.5625"/><rect fill="#FFFFFF" height="29.1328" style="stroke:#181818;stroke-width:1.0;" width="10" x="673" y="295.2266"/><rect fill="#FFFFFF" height="29.1328" style="stroke:#181818;stroke-width:1.0;" width="10" x="738.5" y="360.4922"/><polygon fill="#181818" points="315,108.4297,325,112.4297,315,116.4297,319,112.4297" style="stroke:#181818;stroke-width:1.0;"/><line style="stroke:#181818;stroke-width:1.0;" x1="191" x2="321" y1="112.4297" y2="112.4297"/><text fill="#000000" font-family="sans-serif" font-size="13" lengthAdjust="spacing" textLength="78" x="198" y="107.3638">bookRoom()</text><polygon fill="#181818" points="422,137.5625,432,141.5625,422,145.5625,426,141.5625" style="stroke:#181818;stroke-width:1.0;"/><line style="stroke:#181818;stroke-width:1.0;" x1="332" x2="428" y1="141.5625" y2="141.5625"/><text fill="#000000" font-family="sans-serif" font-size="13" lengthAdjust="spacing" textLength="78" x="339" y="136.4966">bookRoom()</text><polygon fill="#181818" points="422,166.6953,432,170.6953,422,174.6953,426,170.6953" style="stroke:#181818;stroke-width:1.0;"/><line style="stroke:#181818;stroke-width:1.0;" x1="44" x2="428" y1="170.6953" y2="170.6953"/><text fill="#000000" font-family="sans-serif" font-size="13" lengthAdjust="spacing" textLength="271" x="51" y="165.6294">Enter room number and number of people</text><line style="stroke:#181818;stroke-width:1.0;" x1="444" x2="486" y1="199.8281" y2="199.8281"/><line style="stroke:#181818;stroke-width:1.0;" x1="486" x2="486" y1="199.8281" y2="212.8281"/><line style="stroke:#181818;stroke-width:1.0;" x1="445" x2="486" y1="212.8281" y2="212.8281"/><polygon fill="#181818" points="455,208.8281,445,212.8281,455,216.8281,451,212.8281" style="stroke:#181818;stroke-width:1.0;"/><text fill="#000000" font-family="sans-serif" font-size="13" lengthAdjust="spacing" textLength="194" x="451" y="194.7622">find_index_by_room_number()</text><path d="M10,227.8281 L87,227.8281 L87,234.9609 L77,244.9609 L10,244.9609 L10,227.8281 " fill="#EEEEEE" style="stroke:#000000;stroke-width:1.5;"/><rect fill="none" height="104.5313" style="stroke:#000000;stroke-width:1.5;" width="706" x="10" y="227.8281"/><text fill="#000000" font-family="sans-serif" font-size="13" font-weight="bold" lengthAdjust="spacing" textLength="32" x="25" y="240.895">loop</text><text fill="#000000" font-family="sans-serif" font-size="11" font-weight="bold" lengthAdjust="spacing" textLength="207" x="102" y="240.0386">[while there is additional guest]</text><polygon fill="#181818" points="422,262.0938,432,266.0938,422,270.0938,426,266.0938" style="stroke:#181818;stroke-width:1.0;"/><line style="stroke:#181818;stroke-width:1.0;" x1="44" x2="428" y1="266.0938" y2="266.0938"/><text fill="#000000" font-family="sans-serif" font-size="13" lengthAdjust="spacing" textLength="325" x="51" y="261.0278">enter firstname and lastname for additional guests</text><polygon fill="#181818" points="661,291.2266,671,295.2266,661,299.2266,665,295.2266" style="stroke:#181818;stroke-width:1.0;"/><line style="stroke:#181818;stroke-width:1.0;" x1="444" x2="667" y1="295.2266" y2="295.2266"/><text fill="#000000" font-family="sans-serif" font-size="13" lengthAdjust="spacing" textLength="210" x="451" y="290.1606">new Guest(firstName, lastName)</text><polygon fill="#181818" points="455,320.3594,445,324.3594,455,328.3594,451,324.3594" style="stroke:#181818;stroke-width:1.0;"/><line style="stroke:#181818;stroke-width:1.0;" x1="449" x2="677" y1="324.3594" y2="324.3594"/><text fill="#000000" font-family="sans-serif" font-size="13" lengthAdjust="spacing" textLength="157" x="461" y="319.2935">add to guest list of room</text><polygon fill="#181818" points="726.5,356.4922,736.5,360.4922,726.5,364.4922,730.5,360.4922" style="stroke:#181818;stroke-width:1.0;"/><line style="stroke:#181818;stroke-width:1.0;" x1="444" x2="732.5" y1="360.4922" y2="360.4922"/><text fill="#000000" font-family="sans-serif" font-size="13" lengthAdjust="spacing" textLength="104" x="451" y="355.4263">setBooked(true)</text><polygon fill="#181818" points="731.5,385.625,741.5,389.625,731.5,393.625,735.5,389.625" style="stroke:#181818;stroke-width:1.0;"/><line style="stroke:#181818;stroke-width:1.0;" x1="444" x2="737.5" y1="389.625" y2="389.625"/><text fill="#000000" font-family="sans-serif" font-size="13" lengthAdjust="spacing" textLength="193" x="451" y="384.5591">setCurGuestNum(guest_num)</text><polygon fill="#181818" points="202,414.7578,192,418.7578,202,422.7578,198,418.7578" style="stroke:#181818;stroke-width:1.0;"/><line style="stroke:#181818;stroke-width:1.0;stroke-dasharray:2.0,2.0;" x1="196" x2="438" y1="418.7578" y2="418.7578"/><text fill="#000000" font-family="sans-serif" font-size="13" lengthAdjust="spacing" textLength="134" x="208" y="413.6919">booking confirmation</text><!--SRC=[TLBRReCm37tdAwm-KMdx0HucTTEWB_I17q0kc3PQI50mw_RtSvorAhj48ZBoESV7Th1Z7w1QQEPimi2cCnCwXitUCzaQ7Pve9CUxQRAcGpRURG1dsDUxDLubD5Ml4uttOuaTzgJPfloFL_tc9KOMZnI4noUeeO2ZzsyncsypxDYy8vCKlONHMbP7S5EkqJtzXHT7Qa8OJLd0gsCA48G1RXcF4gFhhw4VO28_MSf4MoiKC1ZNj_BHHtlyR2EnJMYfQBsVu78sbe3F50ZC3DZt9iuHBPnqxY3dwY1v9lKmc32pmv7KWSNldq4MzbDZLf7agIh0qIKfvgfn4Dg32iHegzXR-rMgV-r6b85zKWLhv9AUOrCAkvjWbL5q9GrUPr70JFmiuwO-vx3GtNgQ5UPb2Uhki8ov5ee3MwqdxLn9megxJuiqxWITTzBLg6znnIc_0000]--></g></svg>