<?xml version="1.0" encoding="us-ascii" standalone="no"?><svg xmlns="http://www.w3.org/2000/svg" xmlns:xlink="http://www.w3.org/1999/xlink" contentStyleType="text/css" height="531px" preserveAspectRatio="none" style="width:731px;height:531px;background:#FFFFFF;" version="1.1" viewBox="0 0 731 531" width="731px" zoomAndPan="magnify"><defs/><g><rect fill="#FFFFFF" height="30" style="stroke:#181818;stroke-width:1.0;" width="10" x="166" y="112.4297"/><rect fill="#FFFFFF" height="59.1328" style="stroke:#181818;stroke-width:1.0;" width="10" x="312" y="112.4297"/><rect fill="#FFFFFF" height="260.7969" style="stroke:#181818;stroke-width:1.0;" width="10" x="409" y="171.5625"/><rect fill="#FFFFFF" height="30" style="stroke:#181818;stroke-width:1.0;" width="10" x="627" y="271.9609"/><rect fill="#FFFFFF" height="30" style="stroke:#181818;stroke-width:1.0;" width="10" x="692.5" y="373.2266"/><line style="stroke:#181818;stroke-width:0.5;stroke-dasharray:5.0,5.0;" x1="29" x2="29" y1="81.2969" y2="450.3594"/><line style="stroke:#181818;stroke-width:0.5;stroke-dasharray:5.0,5.0;" x1="171" x2="171" y1="81.2969" y2="450.3594"/><line style="stroke:#181818;stroke-width:0.5;stroke-dasharray:5.0,5.0;" x1="317" x2="317" y1="81.2969" y2="450.3594"/><line style="stroke:#181818;stroke-width:0.5;stroke-dasharray:5.0,5.0;" x1="413.5" x2="413.5" y1="81.2969" y2="450.3594"/><line style="stroke:#181818;stroke-width:0.5;stroke-dasharray:5.0,5.0;" x1="631.5" x2="631.5" y1="81.2969" y2="450.3594"/><line style="stroke:#181818;stroke-width:0.5;stroke-dasharray:5.0,5.0;" x1="697.5" x2="697.5" y1="81.2969" y2="450.3594"/><text fill="#000000" font-family="sans-serif" font-size="14" lengthAdjust="spacing" textLength="42" x="5" y="77.9951">Guest</text><ellipse cx="29" cy="13.5" fill="#E2E2F0" rx="8" ry="8" style="stroke:#181818;stroke-width:0.5;"/><path d="M29,21.5 L29,48.5 M16,29.5 L42,29.5 M29,48.5 L16,63.5 M29,48.5 L42,63.5 " fill="none" style="stroke:#181818;stroke-width:0.5;"/><text fill="#000000" font-family="sans-serif" font-size="14" lengthAdjust="spacing" textLength="42" x="5" y="462.3545">Guest</text><ellipse cx="29" cy="474.1563" fill="#E2E2F0" rx="8" ry="8" style="stroke:#181818;stroke-width:0.5;"/><path d="M29,482.1563 L29,509.1563 M16,490.1563 L42,490.1563 M29,509.1563 L16,524.1563 M29,509.1563 L42,524.1563 " fill="none" style="stroke:#181818;stroke-width:0.5;"/><rect fill="#E2E2F0" height="30.2969" rx="2.5" ry="2.5" style="stroke:#181818;stroke-width:0.5;" width="216" x="63" y="50"/><text fill="#000000" font-family="sans-serif" font-size="14" lengthAdjust="spacing" textLength="202" x="70" y="69.9951">HotelManagementApplication</text><rect fill="#E2E2F0" height="30.2969" rx="2.5" ry="2.5" style="stroke:#181818;stroke-width:0.5;" width="216" x="63" y="449.3594"/><text fill="#000000" font-family="sans-serif" font-size="14" lengthAdjust="spacing" textLength="202" x="70" y="469.3545">HotelManagementApplication</text><rect fill="#E2E2F0" height="30.2969" rx="2.5" ry="2.5" style="stroke:#181818;stroke-width:0.5;" width="56" x="289" y="50"/><text fill="#000000" font-family="sans-serif" font-size="14" lengthAdjust="spacing" textLength="42" x="296" y="69.9951">Guest</text><rect fill="#E2E2F0" height="30.2969" rx="2.5" ry="2.5" style="stroke:#181818;stroke-width:0.5;" width="56" x="289" y="449.3594"/><text fill="#000000" font-family="sans-serif" font-size="14" lengthAdjust="spacing" textLength="42" x="296" y="469.3545">Guest</text><rect fill="#E2E2F0" height="30.2969" rx="2.5" ry="2.5" style="stroke:#181818;stroke-width:0.5;" width="105" x="361.5" y="50"/><text fill="#000000" font-family="sans-serif" font-size="14" lengthAdjust="spacing" textLength="91" x="368.5" y="69.9951">RoomFacade</text><rect fill="#E2E2F0" height="30.2969" rx="2.5" ry="2.5" style="stroke:#181818;stroke-width:0.5;" width="105" x="361.5" y="449.3594"/><text fill="#000000" font-family="sans-serif" font-size="14" lengthAdjust="spacing" textLength="91" x="368.5" y="469.3545">RoomFacade</text><rect fill="#E2E2F0" height="30.2969" rx="2.5" ry="2.5" style="stroke:#181818;stroke-width:0.5;" width="55" x="604.5" y="50"/><text fill="#000000" font-family="sans-serif" font-size="14" lengthAdjust="spacing" textLength="41" x="611.5" y="69.9951">Room</text><rect fill="#E2E2F0" height="30.2969" rx="2.5" ry="2.5" style="stroke:#181818;stroke-width:0.5;" width="55" x="604.5" y="449.3594"/><text fill="#000000" font-family="sans-serif" font-size="14" lengthAdjust="spacing" textLength="41" x="611.5" y="469.3545">Room</text><rect fill="#E2E2F0" height="30.2969" rx="2.5" ry="2.5" style="stroke:#181818;stroke-width:0.5;" width="56" x="669.5" y="50"/><text fill="#000000" font-family="sans-serif" font-size="14" lengthAdjust="spacing" textLength="42" x="676.5" y="69.9951">Guest</text><rect fill="#E2E2F0" height="30.2969" rx="2.5" ry="2.5" style="stroke:#181818;stroke-width:0.5;" width="56" x="669.5" y="449.3594"/><text fill="#000000" font-family="sans-serif" font-size="14" lengthAdjust="spacing" textLength="42" x="676.5" y="469.3545">Guest</text><rect fill="#FFFFFF" height="30" style="stroke:#181818;stroke-width:1.0;" width="10" x="166" y="112.4297"/><rect fill="#FFFFFF" height="59.1328" style="stroke:#181818;stroke-width:1.0;" width="10" x="312" y="112.4297"/><rect fill="#FFFFFF" height="260.7969" style="stroke:#181818;stroke-width:1.0;" width="10" x="409" y="171.5625"/><rect fill="#FFFFFF" height="30" style="stroke:#181818;stroke-width:1.0;" width="10" x="627" y="271.9609"/><rect fill="#FFFFFF" height="30" style="stroke:#181818;stroke-width:1.0;" width="10" x="692.5" y="373.2266"/><polygon fill="#181818" points="300,108.4297,310,112.4297,300,116.4297,304,112.4297" style="stroke:#181818;stroke-width:1.0;"/><line style="stroke:#181818;stroke-width:1.0;" x1="176" x2="306" y1="112.4297" y2="112.4297"/><text fill="#000000" font-family="sans-serif" font-size="13" lengthAdjust="spacing" textLength="68" x="183" y="107.3638">checkout()</text><polygon fill="#181818" points="397,167.5625,407,171.5625,397,175.5625,401,171.5625" style="stroke:#181818;stroke-width:1.0;"/><line style="stroke:#181818;stroke-width:1.0;" x1="317" x2="403" y1="171.5625" y2="171.5625"/><text fill="#000000" font-family="sans-serif" font-size="13" lengthAdjust="spacing" textLength="68" x="324" y="166.4966">checkout()</text><polygon fill="#181818" points="397,196.6953,407,200.6953,397,204.6953,401,200.6953" style="stroke:#181818;stroke-width:1.0;"/><line style="stroke:#181818;stroke-width:1.0;" x1="29" x2="403" y1="200.6953" y2="200.6953"/><text fill="#000000" font-family="sans-serif" font-size="13" lengthAdjust="spacing" textLength="126" x="36" y="195.6294">enter room number</text><line style="stroke:#181818;stroke-width:1.0;" x1="419" x2="461" y1="229.8281" y2="229.8281"/><line style="stroke:#181818;stroke-width:1.0;" x1="461" x2="461" y1="229.8281" y2="242.8281"/><line style="stroke:#181818;stroke-width:1.0;" x1="420" x2="461" y1="242.8281" y2="242.8281"/><polygon fill="#181818" points="430,238.8281,420,242.8281,430,246.8281,426,242.8281" style="stroke:#181818;stroke-width:1.0;"/><text fill="#000000" font-family="sans-serif" font-size="13" lengthAdjust="spacing" textLength="194" x="426" y="224.7622">find_index_by_room_number()</text><polygon fill="#181818" points="615,267.9609,625,271.9609,615,275.9609,619,271.9609" style="stroke:#181818;stroke-width:1.0;"/><line style="stroke:#181818;stroke-width:1.0;" x1="419" x2="621" y1="271.9609" y2="271.9609"/><text fill="#000000" font-family="sans-serif" font-size="13" lengthAdjust="spacing" textLength="108" x="426" y="266.895">setBooked(false)</text><line style="stroke:#181818;stroke-width:1.0;" x1="419" x2="461" y1="331.0938" y2="331.0938"/><line style="stroke:#181818;stroke-width:1.0;" x1="461" x2="461" y1="331.0938" y2="344.0938"/><line style="stroke:#181818;stroke-width:1.0;" x1="420" x2="461" y1="344.0938" y2="344.0938"/><polygon fill="#181818" points="430,340.0938,420,344.0938,430,348.0938,426,344.0938" style="stroke:#181818;stroke-width:1.0;"/><text fill="#000000" font-family="sans-serif" font-size="13" lengthAdjust="spacing" textLength="158" x="426" y="326.0278">find_index_by_username</text><polygon fill="#181818" points="680.5,369.2266,690.5,373.2266,680.5,377.2266,684.5,373.2266" style="stroke:#181818;stroke-width:1.0;"/><line style="stroke:#181818;stroke-width:1.0;" x1="419" x2="686.5" y1="373.2266" y2="373.2266"/><text fill="#000000" font-family="sans-serif" font-size="13" lengthAdjust="spacing" textLength="252" x="426" y="368.1606">remove Room from Guest's booking list</text><polygon fill="#181818" points="182,428.3594,172,432.3594,182,436.3594,178,432.3594" style="stroke:#181818;stroke-width:1.0;"/><line style="stroke:#181818;stroke-width:1.0;stroke-dasharray:2.0,2.0;" x1="176" x2="413" y1="432.3594" y2="432.3594"/><text fill="#000000" font-family="sans-serif" font-size="13" lengthAdjust="spacing" textLength="142" x="188" y="427.2935">checkout confirmation</text><!--SRC=[TP51RiCW44Ntd6AKJTD5Bv15fNHXPyF65x36U9oY6B1W7BMtxu0LnrOL92EX__-RRq338K8zKs8rOMHhx8IUuN09JAD6ZrTovFayJQCro3Ru0s22Ypxl_GLH9BqNcX1SXGPxAcfJ_PSNuHMlLdd9GFZu10qdCDzaRc7cuxj2m_QEJALFJxlZUj1AwPnjgdru6z1FkpGimvV82UJlAKAKdk1drr5K0dhW1klxLZxwQRlVDflQnPJv3wFu4l5N23VgZmEEYJRDcssDHhs6pucYHqShjnPB91VkailjXYXRgVwMe9DfrbzXjFAoAx_U3giNa93ovJwl1apmWusklFQkNVK7]--></g></svg>