<?xml version="1.0" encoding="us-ascii" standalone="no"?><svg xmlns="http://www.w3.org/2000/svg" xmlns:xlink="http://www.w3.org/1999/xlink" contentStyleType="text/css" height="1139px" preserveAspectRatio="none" style="width:1835px;height:1139px;background:#FFFFFF;" version="1.1" viewBox="0 0 1835 1139" width="1835px" zoomAndPan="magnify"><defs/><g><!--class Room--><g id="elem_Room"><rect codeLine="1" fill="#F1F1F1" height="239.5625" id="Room" rx="2.5" ry="2.5" style="stroke:#181818;stroke-width:0.5;" width="479" x="7" y="811.9"/><ellipse cx="221.75" cy="827.9" fill="#ADD1B2" rx="11" ry="11" style="stroke:#181818;stroke-width:1.0;"/><path d="M224.7188,833.5406 Q224.1406,833.8375 223.5,833.9781 Q222.8594,834.1344 222.1563,834.1344 Q219.6563,834.1344 218.3281,832.4938 Q217.0156,830.8375 217.0156,827.7125 Q217.0156,824.5875 218.3281,822.9313 Q219.6563,821.275 222.1563,821.275 Q222.8594,821.275 223.5,821.4313 Q224.1563,821.5875 224.7188,821.8844 L224.7188,824.6031 Q224.0938,824.025 223.5,823.7594 Q222.9063,823.4781 222.2813,823.4781 Q220.9375,823.4781 220.25,824.5563 Q219.5625,825.6188 219.5625,827.7125 Q219.5625,829.8063 220.25,830.8844 Q220.9375,831.9469 222.2813,831.9469 Q222.9063,831.9469 223.5,831.6813 Q224.0938,831.4 224.7188,830.8219 L224.7188,833.5406 Z " fill="#000000"/><text fill="#000000" font-family="sans-serif" font-size="14" lengthAdjust="spacing" textLength="41" x="242.25" y="832.7467">Room</text><line style="stroke:#181818;stroke-width:0.5;" x1="8" x2="485" y1="843.9" y2="843.9"/><rect fill="none" height="6" style="stroke:#C82930;stroke-width:1.0;" width="6" x="15" y="854.5484"/><text fill="#000000" font-family="sans-serif" font-size="14" lengthAdjust="spacing" textLength="74" x="27" y="860.8951">String type</text><rect fill="none" height="6" style="stroke:#C82930;stroke-width:1.0;" width="6" x="15" y="870.8453"/><text fill="#000000" font-family="sans-serif" font-size="14" lengthAdjust="spacing" textLength="141" x="27" y="877.192">String room_number</text><rect fill="none" height="6" style="stroke:#C82930;stroke-width:1.0;" width="6" x="15" y="887.1422"/><text fill="#000000" font-family="sans-serif" font-size="14" lengthAdjust="spacing" textLength="77" x="27" y="893.4889">int capacity</text><rect fill="none" height="6" style="stroke:#C82930;stroke-width:1.0;" width="6" x="15" y="903.4391"/><text fill="#000000" font-family="sans-serif" font-size="14" lengthAdjust="spacing" textLength="117" x="27" y="909.7857">int curGuestNum</text><rect fill="none" height="6" style="stroke:#C82930;stroke-width:1.0;" width="6" x="15" y="919.7359"/><text fill="#000000" font-family="sans-serif" font-size="14" lengthAdjust="spacing" textLength="284" x="27" y="926.0826">final ArrayList&lt;Guest&gt; guests_of_a_room</text><rect fill="none" height="6" style="stroke:#C82930;stroke-width:1.0;" width="6" x="15" y="936.0328"/><text fill="#000000" font-family="sans-serif" font-size="14" lengthAdjust="spacing" textLength="86" x="27" y="942.3795">double price</text><rect fill="none" height="6" style="stroke:#C82930;stroke-width:1.0;" width="6" x="15" y="952.3297"/><text fill="#000000" font-family="sans-serif" font-size="14" lengthAdjust="spacing" textLength="113" x="27" y="958.6764">boolean booked</text><ellipse cx="18" cy="991.9234" fill="#84BE84" rx="3" ry="3" style="stroke:#038048;stroke-width:1.0;"/><text fill="#000000" font-family="sans-serif" font-size="14" lengthAdjust="spacing" textLength="51" x="27" y="995.2701">Room()</text><ellipse cx="18" cy="1008.2203" fill="#84BE84" rx="3" ry="3" style="stroke:#038048;stroke-width:1.0;"/><text fill="#000000" font-family="sans-serif" font-size="14" lengthAdjust="spacing" textLength="453" x="27" y="1011.567">Room(String type, String room_number, int capacity, double price)</text><ellipse cx="18" cy="1024.5172" fill="#84BE84" rx="3" ry="3" style="stroke:#038048;stroke-width:1.0;"/><text fill="#000000" font-family="sans-serif" font-size="14" lengthAdjust="spacing" textLength="177" x="27" y="1027.8639">void displayRoomDetails()</text><ellipse cx="18" cy="1040.8141" fill="#84BE84" rx="3" ry="3" style="stroke:#038048;stroke-width:1.0;"/><text fill="#000000" font-family="sans-serif" font-size="14" lengthAdjust="spacing" textLength="271" x="27" y="1044.1607">void displayRoomDetailsGuestVersion()</text><line style="stroke:#181818;stroke-width:1.0;stroke-dasharray:1.0,2.0;" x1="8" x2="215.5" y1="974.1266" y2="974.1266"/><text fill="#000000" font-family="sans-serif" font-size="14" lengthAdjust="spacing" textLength="62" x="215.5" y="978.4732">methods</text><line style="stroke:#181818;stroke-width:1.0;stroke-dasharray:1.0,2.0;" x1="277.5" x2="485" y1="974.1266" y2="974.1266"/></g><!--class Manager--><g id="elem_Manager"><rect codeLine="16" fill="#F1F1F1" height="255.8594" id="Manager" rx="2.5" ry="2.5" style="stroke:#181818;stroke-width:0.5;" width="751" x="1077" y="414.56"/><ellipse cx="1418.25" cy="430.56" fill="#ADD1B2" rx="11" ry="11" style="stroke:#181818;stroke-width:1.0;"/><path d="M1421.2188,436.2006 Q1420.6406,436.4975 1420,436.6381 Q1419.3594,436.7944 1418.6563,436.7944 Q1416.1563,436.7944 1414.8281,435.1538 Q1413.5156,433.4975 1413.5156,430.3725 Q1413.5156,427.2475 1414.8281,425.5913 Q1416.1563,423.935 1418.6563,423.935 Q1419.3594,423.935 1420,424.0913 Q1420.6563,424.2475 1421.2188,424.5444 L1421.2188,427.2631 Q1420.5938,426.685 1420,426.4194 Q1419.4063,426.1381 1418.7813,426.1381 Q1417.4375,426.1381 1416.75,427.2163 Q1416.0625,428.2788 1416.0625,430.3725 Q1416.0625,432.4663 1416.75,433.5444 Q1417.4375,434.6069 1418.7813,434.6069 Q1419.4063,434.6069 1420,434.3413 Q1420.5938,434.06 1421.2188,433.4819 L1421.2188,436.2006 Z " fill="#000000"/><text fill="#000000" font-family="sans-serif" font-size="14" lengthAdjust="spacing" textLength="60" x="1438.75" y="435.4067">Manager</text><line style="stroke:#181818;stroke-width:0.5;" x1="1078" x2="1827" y1="446.56" y2="446.56"/><ellipse cx="1088" cy="480.5053" fill="#84BE84" rx="3" ry="3" style="stroke:#038048;stroke-width:1.0;"/><text fill="#000000" font-family="sans-serif" font-size="14" lengthAdjust="spacing" textLength="70" x="1097" y="483.852">Manager()</text><ellipse cx="1088" cy="496.8022" fill="#84BE84" rx="3" ry="3" style="stroke:#038048;stroke-width:1.0;"/><text fill="#000000" font-family="sans-serif" font-size="14" lengthAdjust="spacing" textLength="725" x="1097" y="500.1489">Manager(String username, String password, String firstName, String lastName, RoomFacade roomFacade)</text><ellipse cx="1088" cy="513.0991" fill="#84BE84" rx="3" ry="3" style="stroke:#038048;stroke-width:1.0;"/><text fill="#000000" font-family="sans-serif" font-size="14" lengthAdjust="spacing" textLength="129" x="1097" y="516.4457">void create_room()</text><ellipse cx="1088" cy="529.3959" fill="#84BE84" rx="3" ry="3" style="stroke:#038048;stroke-width:1.0;"/><text fill="#000000" font-family="sans-serif" font-size="14" lengthAdjust="spacing" textLength="129" x="1097" y="532.7426">void delete_room()</text><ellipse cx="1088" cy="545.6928" fill="#84BE84" rx="3" ry="3" style="stroke:#038048;stroke-width:1.0;"/><text fill="#000000" font-family="sans-serif" font-size="14" lengthAdjust="spacing" textLength="178" x="1097" y="549.0395">void register_new_guest()</text><ellipse cx="1088" cy="561.9897" fill="#84BE84" rx="3" ry="3" style="stroke:#038048;stroke-width:1.0;"/><text fill="#000000" font-family="sans-serif" font-size="14" lengthAdjust="spacing" textLength="111" x="1097" y="565.3364">void edit_room()</text><ellipse cx="1088" cy="578.2866" fill="#84BE84" rx="3" ry="3" style="stroke:#038048;stroke-width:1.0;"/><text fill="#000000" font-family="sans-serif" font-size="14" lengthAdjust="spacing" textLength="248" x="1097" y="581.6332">void view_guests_in_specific_room()</text><ellipse cx="1088" cy="594.5834" fill="#84BE84" rx="3" ry="3" style="stroke:#038048;stroke-width:1.0;"/><text fill="#000000" font-family="sans-serif" font-size="14" lengthAdjust="spacing" textLength="300" x="1097" y="597.9301">void view_list_of_rooms_for_a_given_guest()</text><ellipse cx="1088" cy="610.8803" fill="#84BE84" rx="3" ry="3" style="stroke:#038048;stroke-width:1.0;"/><text fill="#000000" font-family="sans-serif" font-size="14" lengthAdjust="spacing" textLength="155" x="1097" y="614.227">void show_all_guests()</text><ellipse cx="1088" cy="627.1772" fill="#84BE84" rx="3" ry="3" style="stroke:#038048;stroke-width:1.0;"/><text fill="#000000" font-family="sans-serif" font-size="14" lengthAdjust="spacing" textLength="144" x="1097" y="630.5239">void view_all_rooms()</text><ellipse cx="1088" cy="643.4741" fill="#84BE84" rx="3" ry="3" style="stroke:#038048;stroke-width:1.0;"/><text fill="#000000" font-family="sans-serif" font-size="14" lengthAdjust="spacing" textLength="188" x="1097" y="646.8207">void view_available_rooms()</text><ellipse cx="1088" cy="659.7709" fill="#84BE84" rx="3" ry="3" style="stroke:#038048;stroke-width:1.0;"/><text fill="#000000" font-family="sans-serif" font-size="14" lengthAdjust="spacing" textLength="222" x="1097" y="663.1176">void view_non_available_rooms()</text><line style="stroke:#181818;stroke-width:1.0;stroke-dasharray:1.0,2.0;" x1="1078" x2="1421.5" y1="462.7084" y2="462.7084"/><text fill="#000000" font-family="sans-serif" font-size="14" lengthAdjust="spacing" textLength="62" x="1421.5" y="467.0551">methods</text><line style="stroke:#181818;stroke-width:1.0;stroke-dasharray:1.0,2.0;" x1="1483.5" x2="1827" y1="462.7084" y2="462.7084"/></g><!--class User--><g id="elem_User"><rect codeLine="49" fill="#F1F1F1" height="223.2656" id="User" rx="2.5" ry="2.5" style="stroke:#181818;stroke-width:0.5;" width="534" x="597.5" y="131.29"/><ellipse cx="844.25" cy="147.29" fill="#A9DCDF" rx="11" ry="11" style="stroke:#181818;stroke-width:1.0;"/><path d="M844.3594,142.6338 L843.2031,147.7119 L845.5313,147.7119 L844.3594,142.6338 Z M842.875,140.3994 L845.8594,140.3994 L849.2188,152.79 L846.7656,152.79 L846,149.7275 L842.7188,149.7275 L841.9688,152.79 L839.5313,152.79 L842.875,140.3994 Z " fill="#000000"/><text fill="#000000" font-family="sans-serif" font-size="14" font-style="italic" lengthAdjust="spacing" textLength="32" x="864.75" y="152.1367">User</text><line style="stroke:#181818;stroke-width:0.5;" x1="598.5" x2="1130.5" y1="163.29" y2="163.29"/><rect fill="none" height="6" style="stroke:#C82930;stroke-width:1.0;" width="6" x="605.5" y="173.9384"/><text fill="#000000" font-family="sans-serif" font-size="14" lengthAdjust="spacing" textLength="114" x="617.5" y="180.2851">String username</text><rect fill="none" height="6" style="stroke:#C82930;stroke-width:1.0;" width="6" x="605.5" y="190.2353"/><text fill="#000000" font-family="sans-serif" font-size="14" lengthAdjust="spacing" textLength="111" x="617.5" y="196.582">String password</text><rect fill="none" height="6" style="stroke:#C82930;stroke-width:1.0;" width="6" x="605.5" y="206.5322"/><text fill="#000000" font-family="sans-serif" font-size="14" lengthAdjust="spacing" textLength="109" x="617.5" y="212.8789">String firstName</text><rect fill="none" height="6" style="stroke:#C82930;stroke-width:1.0;" width="6" x="605.5" y="222.8291"/><text fill="#000000" font-family="sans-serif" font-size="14" lengthAdjust="spacing" textLength="108" x="617.5" y="229.1757">String lastName</text><ellipse cx="608.5" cy="262.4228" fill="#84BE84" rx="3" ry="3" style="stroke:#038048;stroke-width:1.0;"/><text fill="#000000" font-family="sans-serif" font-size="14" lengthAdjust="spacing" textLength="42" x="617.5" y="265.7695">User()</text><ellipse cx="608.5" cy="278.7197" fill="#84BE84" rx="3" ry="3" style="stroke:#038048;stroke-width:1.0;"/><text fill="#000000" font-family="sans-serif" font-size="14" lengthAdjust="spacing" textLength="267" x="617.5" y="282.0664">User(String firstName, String lastName)</text><ellipse cx="608.5" cy="295.0166" fill="#84BE84" rx="3" ry="3" style="stroke:#038048;stroke-width:1.0;"/><text fill="#000000" font-family="sans-serif" font-size="14" lengthAdjust="spacing" textLength="508" x="617.5" y="298.3632">User(String username, String password, String firstName, String lastName)</text><ellipse cx="608.5" cy="311.3134" fill="#84BE84" rx="3" ry="3" style="stroke:#038048;stroke-width:1.0;"/><text fill="#000000" font-family="sans-serif" font-size="14" font-style="italic" lengthAdjust="spacing" textLength="204" x="617.5" y="314.6601">abstract void view_all_rooms()</text><ellipse cx="608.5" cy="327.6103" fill="#84BE84" rx="3" ry="3" style="stroke:#038048;stroke-width:1.0;"/><text fill="#000000" font-family="sans-serif" font-size="14" font-style="italic" lengthAdjust="spacing" textLength="248" x="617.5" y="330.957">abstract void view_available_rooms()</text><ellipse cx="608.5" cy="343.9072" fill="#84BE84" rx="3" ry="3" style="stroke:#038048;stroke-width:1.0;"/><text fill="#000000" font-family="sans-serif" font-size="14" font-style="italic" lengthAdjust="spacing" textLength="282" x="617.5" y="347.2539">abstract void view_non_available_rooms()</text><line style="stroke:#181818;stroke-width:1.0;stroke-dasharray:1.0,2.0;" x1="598.5" x2="833.5" y1="244.6259" y2="244.6259"/><text fill="#000000" font-family="sans-serif" font-size="14" lengthAdjust="spacing" textLength="62" x="833.5" y="248.9726">methods</text><line style="stroke:#181818;stroke-width:1.0;stroke-dasharray:1.0,2.0;" x1="895.5" x2="1130.5" y1="244.6259" y2="244.6259"/></g><!--class Guest--><g id="elem_Guest"><rect codeLine="32" fill="#F1F1F1" height="272.1563" id="Guest" rx="2.5" ry="2.5" style="stroke:#181818;stroke-width:0.5;" width="733" x="521" y="795.61"/><ellipse cx="862.25" cy="811.61" fill="#ADD1B2" rx="11" ry="11" style="stroke:#181818;stroke-width:1.0;"/><path d="M865.2188,817.2506 Q864.6406,817.5475 864,817.6881 Q863.3594,817.8444 862.6563,817.8444 Q860.1563,817.8444 858.8281,816.2038 Q857.5156,814.5475 857.5156,811.4225 Q857.5156,808.2975 858.8281,806.6413 Q860.1563,804.985 862.6563,804.985 Q863.3594,804.985 864,805.1413 Q864.6563,805.2975 865.2188,805.5944 L865.2188,808.3131 Q864.5938,807.735 864,807.4694 Q863.4063,807.1881 862.7813,807.1881 Q861.4375,807.1881 860.75,808.2663 Q860.0625,809.3288 860.0625,811.4225 Q860.0625,813.5163 860.75,814.5944 Q861.4375,815.6569 862.7813,815.6569 Q863.4063,815.6569 864,815.3913 Q864.5938,815.11 865.2188,814.5319 L865.2188,817.2506 Z " fill="#000000"/><text fill="#000000" font-family="sans-serif" font-size="14" lengthAdjust="spacing" textLength="42" x="882.75" y="816.4567">Guest</text><line style="stroke:#181818;stroke-width:0.5;" x1="522" x2="1253" y1="827.61" y2="827.61"/><rect fill="none" height="6" style="stroke:#C82930;stroke-width:1.0;" width="6" x="529" y="838.2584"/><text fill="#000000" font-family="sans-serif" font-size="14" lengthAdjust="spacing" textLength="260" x="541" y="844.6051">ArrayList&lt;Room&gt; room_list_for_guest</text><ellipse cx="532" cy="877.8522" fill="#84BE84" rx="3" ry="3" style="stroke:#038048;stroke-width:1.0;"/><text fill="#000000" font-family="sans-serif" font-size="14" lengthAdjust="spacing" textLength="52" x="541" y="881.1989">Guest()</text><ellipse cx="532" cy="894.1491" fill="#84BE84" rx="3" ry="3" style="stroke:#038048;stroke-width:1.0;"/><text fill="#000000" font-family="sans-serif" font-size="14" lengthAdjust="spacing" textLength="277" x="541" y="897.4957">Guest(String firstName, String lastName)</text><ellipse cx="532" cy="910.4459" fill="#84BE84" rx="3" ry="3" style="stroke:#038048;stroke-width:1.0;"/><text fill="#000000" font-family="sans-serif" font-size="14" lengthAdjust="spacing" textLength="707" x="541" y="913.7926">Guest(String username, String password, String firstName, String lastName, RoomFacade roomFacade)</text><ellipse cx="532" cy="926.7428" fill="#84BE84" rx="3" ry="3" style="stroke:#038048;stroke-width:1.0;"/><text fill="#000000" font-family="sans-serif" font-size="14" lengthAdjust="spacing" textLength="120" x="541" y="930.0895">void book_room()</text><ellipse cx="532" cy="943.0397" fill="#84BE84" rx="3" ry="3" style="stroke:#038048;stroke-width:1.0;"/><text fill="#000000" font-family="sans-serif" font-size="14" lengthAdjust="spacing" textLength="107" x="541" y="946.3864">void checkout()</text><ellipse cx="532" cy="959.3366" fill="#84BE84" rx="3" ry="3" style="stroke:#038048;stroke-width:1.0;"/><text fill="#000000" font-family="sans-serif" font-size="14" lengthAdjust="spacing" textLength="115" x="541" y="962.6832">void add_guest()</text><ellipse cx="532" cy="975.6334" fill="#84BE84" rx="3" ry="3" style="stroke:#038048;stroke-width:1.0;"/><text fill="#000000" font-family="sans-serif" font-size="14" lengthAdjust="spacing" textLength="183" x="541" y="978.9801">void view_booked_rooms()</text><ellipse cx="532" cy="991.9303" fill="#84BE84" rx="3" ry="3" style="stroke:#038048;stroke-width:1.0;"/><text fill="#000000" font-family="sans-serif" font-size="14" lengthAdjust="spacing" textLength="158" x="541" y="995.277">void show_guest_info()</text><ellipse cx="532" cy="1008.2272" fill="#84BE84" rx="3" ry="3" style="stroke:#038048;stroke-width:1.0;"/><text fill="#000000" font-family="sans-serif" font-size="14" lengthAdjust="spacing" textLength="125" x="541" y="1011.5739">void show_name()</text><ellipse cx="532" cy="1024.5241" fill="#84BE84" rx="3" ry="3" style="stroke:#038048;stroke-width:1.0;"/><text fill="#000000" font-family="sans-serif" font-size="14" lengthAdjust="spacing" textLength="144" x="541" y="1027.8707">void view_all_rooms()</text><ellipse cx="532" cy="1040.8209" fill="#84BE84" rx="3" ry="3" style="stroke:#038048;stroke-width:1.0;"/><text fill="#000000" font-family="sans-serif" font-size="14" lengthAdjust="spacing" textLength="188" x="541" y="1044.1676">void view_available_rooms()</text><ellipse cx="532" cy="1057.1178" fill="#84BE84" rx="3" ry="3" style="stroke:#038048;stroke-width:1.0;"/><text fill="#000000" font-family="sans-serif" font-size="14" lengthAdjust="spacing" textLength="222" x="541" y="1060.4645">void view_non_available_rooms()</text><line style="stroke:#181818;stroke-width:1.0;stroke-dasharray:1.0,2.0;" x1="522" x2="856.5" y1="860.0553" y2="860.0553"/><text fill="#000000" font-family="sans-serif" font-size="14" lengthAdjust="spacing" textLength="62" x="856.5" y="864.402">methods</text><line style="stroke:#181818;stroke-width:1.0;stroke-dasharray:1.0,2.0;" x1="918.5" x2="1253" y1="860.0553" y2="860.0553"/></g><!--class RoomFacade--><g id="elem_RoomFacade"><rect codeLine="63" fill="#F1F1F1" height="402.5313" id="RoomFacade" rx="2.5" ry="2.5" style="stroke:#181818;stroke-width:0.5;" width="326" x="1289.5" y="730.42"/><ellipse cx="1402.75" cy="746.42" fill="#ADD1B2" rx="11" ry="11" style="stroke:#181818;stroke-width:1.0;"/><path d="M1405.7188,752.0606 Q1405.1406,752.3575 1404.5,752.4981 Q1403.8594,752.6544 1403.1563,752.6544 Q1400.6563,752.6544 1399.3281,751.0138 Q1398.0156,749.3575 1398.0156,746.2325 Q1398.0156,743.1075 1399.3281,741.4513 Q1400.6563,739.795 1403.1563,739.795 Q1403.8594,739.795 1404.5,739.9513 Q1405.1563,740.1075 1405.7188,740.4044 L1405.7188,743.1231 Q1405.0938,742.545 1404.5,742.2794 Q1403.9063,741.9981 1403.2813,741.9981 Q1401.9375,741.9981 1401.25,743.0763 Q1400.5625,744.1388 1400.5625,746.2325 Q1400.5625,748.3263 1401.25,749.4044 Q1401.9375,750.4669 1403.2813,750.4669 Q1403.9063,750.4669 1404.5,750.2013 Q1405.0938,749.92 1405.7188,749.3419 L1405.7188,752.0606 Z " fill="#000000"/><text fill="#000000" font-family="sans-serif" font-size="14" lengthAdjust="spacing" textLength="91" x="1423.25" y="751.2667">RoomFacade</text><line style="stroke:#181818;stroke-width:0.5;" x1="1290.5" x2="1614.5" y1="762.42" y2="762.42"/><rect fill="none" height="6" style="stroke:#C82930;stroke-width:1.0;" width="6" x="1297.5" y="773.0684"/><text fill="#000000" font-family="sans-serif" font-size="14" lengthAdjust="spacing" textLength="188" x="1309.5" y="779.4151">ArrayList&lt;Room&gt; room_list</text><rect fill="none" height="6" style="stroke:#C82930;stroke-width:1.0;" width="6" x="1297.5" y="789.3653"/><text fill="#000000" font-family="sans-serif" font-size="14" lengthAdjust="spacing" textLength="193" x="1309.5" y="795.712">ArrayList&lt;Guest&gt; guest_list</text><ellipse cx="1300.5" cy="828.9591" fill="#84BE84" rx="3" ry="3" style="stroke:#038048;stroke-width:1.0;"/><text fill="#000000" font-family="sans-serif" font-size="14" lengthAdjust="spacing" textLength="101" x="1309.5" y="832.3057">RoomFacade()</text><ellipse cx="1300.5" cy="845.2559" fill="#84BE84" rx="3" ry="3" style="stroke:#038048;stroke-width:1.0;"/><text fill="#000000" font-family="sans-serif" font-size="14" lengthAdjust="spacing" textLength="129" x="1309.5" y="848.6026">void create_room()</text><ellipse cx="1300.5" cy="861.5528" fill="#84BE84" rx="3" ry="3" style="stroke:#038048;stroke-width:1.0;"/><text fill="#000000" font-family="sans-serif" font-size="14" lengthAdjust="spacing" textLength="129" x="1309.5" y="864.8995">void delete_room()</text><ellipse cx="1300.5" cy="877.8497" fill="#84BE84" rx="3" ry="3" style="stroke:#038048;stroke-width:1.0;"/><text fill="#000000" font-family="sans-serif" font-size="14" lengthAdjust="spacing" textLength="178" x="1309.5" y="881.1964">void register_new_guest()</text><ellipse cx="1300.5" cy="894.1466" fill="#84BE84" rx="3" ry="3" style="stroke:#038048;stroke-width:1.0;"/><text fill="#000000" font-family="sans-serif" font-size="14" lengthAdjust="spacing" textLength="111" x="1309.5" y="897.4932">void edit_room()</text><ellipse cx="1300.5" cy="910.4434" fill="#84BE84" rx="3" ry="3" style="stroke:#038048;stroke-width:1.0;"/><text fill="#000000" font-family="sans-serif" font-size="14" lengthAdjust="spacing" textLength="248" x="1309.5" y="913.7901">void view_guests_in_specific_room()</text><ellipse cx="1300.5" cy="926.7403" fill="#84BE84" rx="3" ry="3" style="stroke:#038048;stroke-width:1.0;"/><text fill="#000000" font-family="sans-serif" font-size="14" lengthAdjust="spacing" textLength="300" x="1309.5" y="930.087">void view_list_of_rooms_for_a_given_guest()</text><ellipse cx="1300.5" cy="943.0372" fill="#84BE84" rx="3" ry="3" style="stroke:#038048;stroke-width:1.0;"/><text fill="#000000" font-family="sans-serif" font-size="14" lengthAdjust="spacing" textLength="144" x="1309.5" y="946.3839">void view_all_rooms()</text><ellipse cx="1300.5" cy="959.3341" fill="#84BE84" rx="3" ry="3" style="stroke:#038048;stroke-width:1.0;"/><text fill="#000000" font-family="sans-serif" font-size="14" lengthAdjust="spacing" textLength="188" x="1309.5" y="962.6807">void view_available_rooms()</text><ellipse cx="1300.5" cy="975.6309" fill="#84BE84" rx="3" ry="3" style="stroke:#038048;stroke-width:1.0;"/><text fill="#000000" font-family="sans-serif" font-size="14" lengthAdjust="spacing" textLength="222" x="1309.5" y="978.9776">void view_non_available_rooms()</text><ellipse cx="1300.5" cy="991.9278" fill="#84BE84" rx="3" ry="3" style="stroke:#038048;stroke-width:1.0;"/><text fill="#000000" font-family="sans-serif" font-size="14" lengthAdjust="spacing" textLength="120" x="1309.5" y="995.2745">void book_room()</text><ellipse cx="1300.5" cy="1008.2247" fill="#84BE84" rx="3" ry="3" style="stroke:#038048;stroke-width:1.0;"/><text fill="#000000" font-family="sans-serif" font-size="14" lengthAdjust="spacing" textLength="107" x="1309.5" y="1011.5714">void checkout()</text><ellipse cx="1300.5" cy="1024.5216" fill="#84BE84" rx="3" ry="3" style="stroke:#038048;stroke-width:1.0;"/><text fill="#000000" font-family="sans-serif" font-size="14" lengthAdjust="spacing" textLength="115" x="1309.5" y="1027.8682">void add_guest()</text><ellipse cx="1300.5" cy="1040.8184" fill="#84BE84" rx="3" ry="3" style="stroke:#038048;stroke-width:1.0;"/><text fill="#000000" font-family="sans-serif" font-size="14" lengthAdjust="spacing" textLength="183" x="1309.5" y="1044.1651">void view_booked_rooms()</text><ellipse cx="1300.5" cy="1057.1153" fill="#84BE84" rx="3" ry="3" style="stroke:#038048;stroke-width:1.0;"/><text fill="#000000" font-family="sans-serif" font-size="14" lengthAdjust="spacing" textLength="144" x="1309.5" y="1060.462">void view_all_rooms()</text><ellipse cx="1300.5" cy="1073.4122" fill="#84BE84" rx="3" ry="3" style="stroke:#038048;stroke-width:1.0;"/><text fill="#000000" font-family="sans-serif" font-size="14" lengthAdjust="spacing" textLength="188" x="1309.5" y="1076.7589">void view_available_rooms()</text><ellipse cx="1300.5" cy="1089.7091" fill="#84BE84" rx="3" ry="3" style="stroke:#038048;stroke-width:1.0;"/><text fill="#000000" font-family="sans-serif" font-size="14" lengthAdjust="spacing" textLength="222" x="1309.5" y="1093.0557">void view_non_available_rooms()</text><ellipse cx="1300.5" cy="1106.0059" fill="#84BE84" rx="3" ry="3" style="stroke:#038048;stroke-width:1.0;"/><text fill="#000000" font-family="sans-serif" font-size="14" lengthAdjust="spacing" textLength="155" x="1309.5" y="1109.3526">void show_all_guests()</text><text fill="#000000" font-family="sans-serif" font-size="14" lengthAdjust="spacing" textLength="4" x="1309.5" y="1125.6495">&#160;</text><line style="stroke:#181818;stroke-width:1.0;stroke-dasharray:1.0,2.0;" x1="1290.5" x2="1421.5" y1="811.1622" y2="811.1622"/><text fill="#000000" font-family="sans-serif" font-size="14" lengthAdjust="spacing" textLength="62" x="1421.5" y="815.5089">methods</text><line style="stroke:#181818;stroke-width:1.0;stroke-dasharray:1.0,2.0;" x1="1483.5" x2="1614.5" y1="811.1622" y2="811.1622"/></g><!--class ManagerInterface--><g id="elem_ManagerInterface"><rect codeLine="88" fill="#F1F1F1" height="210.9688" id="ManagerInterface" rx="2.5" ry="2.5" style="stroke:#181818;stroke-width:0.5;" width="326" x="1289.5" y="137.44"/><ellipse cx="1388.25" cy="153.44" fill="#B4A7E5" rx="11" ry="11" style="stroke:#181818;stroke-width:1.0;"/><path d="M1384.1719,149.2056 L1384.1719,147.0494 L1391.5625,147.0494 L1391.5625,149.2056 L1389.0938,149.2056 L1389.0938,157.2838 L1391.5625,157.2838 L1391.5625,159.44 L1384.1719,159.44 L1384.1719,157.2838 L1386.6406,157.2838 L1386.6406,149.2056 L1384.1719,149.2056 Z " fill="#000000"/><text fill="#000000" font-family="sans-serif" font-size="14" font-style="italic" lengthAdjust="spacing" textLength="120" x="1408.75" y="158.2867">ManagerInterface</text><line style="stroke:#181818;stroke-width:0.5;" x1="1290.5" x2="1614.5" y1="169.44" y2="169.44"/><line style="stroke:#181818;stroke-width:0.5;" x1="1290.5" x2="1614.5" y1="177.44" y2="177.44"/><ellipse cx="1300.5" cy="191.0884" fill="#84BE84" rx="3" ry="3" style="stroke:#038048;stroke-width:1.0;"/><text fill="#000000" font-family="sans-serif" font-size="14" lengthAdjust="spacing" textLength="129" x="1309.5" y="194.4351">void create_room()</text><ellipse cx="1300.5" cy="207.3853" fill="#84BE84" rx="3" ry="3" style="stroke:#038048;stroke-width:1.0;"/><text fill="#000000" font-family="sans-serif" font-size="14" lengthAdjust="spacing" textLength="129" x="1309.5" y="210.732">void delete_room()</text><ellipse cx="1300.5" cy="223.6822" fill="#84BE84" rx="3" ry="3" style="stroke:#038048;stroke-width:1.0;"/><text fill="#000000" font-family="sans-serif" font-size="14" lengthAdjust="spacing" textLength="178" x="1309.5" y="227.0289">void register_new_guest()</text><ellipse cx="1300.5" cy="239.9791" fill="#84BE84" rx="3" ry="3" style="stroke:#038048;stroke-width:1.0;"/><text fill="#000000" font-family="sans-serif" font-size="14" lengthAdjust="spacing" textLength="111" x="1309.5" y="243.3257">void edit_room()</text><ellipse cx="1300.5" cy="256.2759" fill="#84BE84" rx="3" ry="3" style="stroke:#038048;stroke-width:1.0;"/><text fill="#000000" font-family="sans-serif" font-size="14" lengthAdjust="spacing" textLength="248" x="1309.5" y="259.6226">void view_guests_in_specific_room()</text><ellipse cx="1300.5" cy="272.5728" fill="#84BE84" rx="3" ry="3" style="stroke:#038048;stroke-width:1.0;"/><text fill="#000000" font-family="sans-serif" font-size="14" lengthAdjust="spacing" textLength="300" x="1309.5" y="275.9195">void view_list_of_rooms_for_a_given_guest()</text><ellipse cx="1300.5" cy="288.8697" fill="#84BE84" rx="3" ry="3" style="stroke:#038048;stroke-width:1.0;"/><text fill="#000000" font-family="sans-serif" font-size="14" lengthAdjust="spacing" textLength="155" x="1309.5" y="292.2164">void show_all_guests()</text><ellipse cx="1300.5" cy="305.1666" fill="#84BE84" rx="3" ry="3" style="stroke:#038048;stroke-width:1.0;"/><text fill="#000000" font-family="sans-serif" font-size="14" lengthAdjust="spacing" textLength="144" x="1309.5" y="308.5132">void view_all_rooms()</text><ellipse cx="1300.5" cy="321.4634" fill="#84BE84" rx="3" ry="3" style="stroke:#038048;stroke-width:1.0;"/><text fill="#000000" font-family="sans-serif" font-size="14" lengthAdjust="spacing" textLength="188" x="1309.5" y="324.8101">void view_available_rooms()</text><ellipse cx="1300.5" cy="337.7603" fill="#84BE84" rx="3" ry="3" style="stroke:#038048;stroke-width:1.0;"/><text fill="#000000" font-family="sans-serif" font-size="14" lengthAdjust="spacing" textLength="222" x="1309.5" y="341.107">void view_non_available_rooms()</text></g><!--class GuestInterface--><g id="elem_GuestInterface"><rect codeLine="101" fill="#F1F1F1" height="194.6719" id="GuestInterface" rx="2.5" ry="2.5" style="stroke:#181818;stroke-width:0.5;" width="248" x="793.5" y="445.15"/><ellipse cx="862.25" cy="461.15" fill="#B4A7E5" rx="11" ry="11" style="stroke:#181818;stroke-width:1.0;"/><path d="M858.1719,456.9156 L858.1719,454.7594 L865.5625,454.7594 L865.5625,456.9156 L863.0938,456.9156 L863.0938,464.9938 L865.5625,464.9938 L865.5625,467.15 L858.1719,467.15 L858.1719,464.9938 L860.6406,464.9938 L860.6406,456.9156 L858.1719,456.9156 Z " fill="#000000"/><text fill="#000000" font-family="sans-serif" font-size="14" font-style="italic" lengthAdjust="spacing" textLength="102" x="882.75" y="465.9967">GuestInterface</text><line style="stroke:#181818;stroke-width:0.5;" x1="794.5" x2="1040.5" y1="477.15" y2="477.15"/><line style="stroke:#181818;stroke-width:0.5;" x1="794.5" x2="1040.5" y1="485.15" y2="485.15"/><ellipse cx="804.5" cy="498.7984" fill="#84BE84" rx="3" ry="3" style="stroke:#038048;stroke-width:1.0;"/><text fill="#000000" font-family="sans-serif" font-size="14" lengthAdjust="spacing" textLength="120" x="813.5" y="502.1451">void book_room()</text><ellipse cx="804.5" cy="515.0953" fill="#84BE84" rx="3" ry="3" style="stroke:#038048;stroke-width:1.0;"/><text fill="#000000" font-family="sans-serif" font-size="14" lengthAdjust="spacing" textLength="107" x="813.5" y="518.442">void checkout()</text><ellipse cx="804.5" cy="531.3922" fill="#84BE84" rx="3" ry="3" style="stroke:#038048;stroke-width:1.0;"/><text fill="#000000" font-family="sans-serif" font-size="14" lengthAdjust="spacing" textLength="115" x="813.5" y="534.7389">void add_guest()</text><ellipse cx="804.5" cy="547.6891" fill="#84BE84" rx="3" ry="3" style="stroke:#038048;stroke-width:1.0;"/><text fill="#000000" font-family="sans-serif" font-size="14" lengthAdjust="spacing" textLength="183" x="813.5" y="551.0357">void view_booked_rooms()</text><ellipse cx="804.5" cy="563.9859" fill="#84BE84" rx="3" ry="3" style="stroke:#038048;stroke-width:1.0;"/><text fill="#000000" font-family="sans-serif" font-size="14" lengthAdjust="spacing" textLength="158" x="813.5" y="567.3326">void show_guest_info()</text><ellipse cx="804.5" cy="580.2828" fill="#84BE84" rx="3" ry="3" style="stroke:#038048;stroke-width:1.0;"/><text fill="#000000" font-family="sans-serif" font-size="14" lengthAdjust="spacing" textLength="125" x="813.5" y="583.6295">void show_name()</text><ellipse cx="804.5" cy="596.5797" fill="#84BE84" rx="3" ry="3" style="stroke:#038048;stroke-width:1.0;"/><text fill="#000000" font-family="sans-serif" font-size="14" lengthAdjust="spacing" textLength="144" x="813.5" y="599.9264">void view_all_rooms()</text><ellipse cx="804.5" cy="612.8766" fill="#84BE84" rx="3" ry="3" style="stroke:#038048;stroke-width:1.0;"/><text fill="#000000" font-family="sans-serif" font-size="14" lengthAdjust="spacing" textLength="188" x="813.5" y="616.2232">void view_available_rooms()</text><ellipse cx="804.5" cy="629.1734" fill="#84BE84" rx="3" ry="3" style="stroke:#038048;stroke-width:1.0;"/><text fill="#000000" font-family="sans-serif" font-size="14" lengthAdjust="spacing" textLength="222" x="813.5" y="632.5201">void view_non_available_rooms()</text></g><!--class HotelManagementApplication--><g id="elem_HotelManagementApplication"><rect codeLine="113" fill="#F1F1F1" height="64.2969" id="HotelManagementApplication" rx="2.5" ry="2.5" style="stroke:#181818;stroke-width:0.5;" width="234" x="747.5" y="7"/><ellipse cx="762.5" cy="23" fill="#ADD1B2" rx="11" ry="11" style="stroke:#181818;stroke-width:1.0;"/><path d="M765.4688,28.6406 Q764.8906,28.9375 764.25,29.0781 Q763.6094,29.2344 762.9063,29.2344 Q760.4063,29.2344 759.0781,27.5938 Q757.7656,25.9375 757.7656,22.8125 Q757.7656,19.6875 759.0781,18.0313 Q760.4063,16.375 762.9063,16.375 Q763.6094,16.375 764.25,16.5313 Q764.9063,16.6875 765.4688,16.9844 L765.4688,19.7031 Q764.8438,19.125 764.25,18.8594 Q763.6563,18.5781 763.0313,18.5781 Q761.6875,18.5781 761,19.6563 Q760.3125,20.7188 760.3125,22.8125 Q760.3125,24.9063 761,25.9844 Q761.6875,27.0469 763.0313,27.0469 Q763.6563,27.0469 764.25,26.7813 Q764.8438,26.5 765.4688,25.9219 L765.4688,28.6406 Z " fill="#000000"/><text fill="#000000" font-family="sans-serif" font-size="14" lengthAdjust="spacing" textLength="202" x="776.5" y="27.8467">HotelManagementApplication</text><line style="stroke:#181818;stroke-width:0.5;" x1="748.5" x2="980.5" y1="39" y2="39"/><line style="stroke:#181818;stroke-width:0.5;" x1="748.5" x2="980.5" y1="47" y2="47"/><text fill="#000000" font-family="sans-serif" font-size="14" lengthAdjust="spacing" textLength="211" x="753.5" y="63.9951">public static void main(String[])</text></g><!--reverse link User to Manager--><g id="link_User_Manager"><path d="M1099.9308,363.0672 C1138.1108,382.3872 1162.03,394.5 1201,414.21 " fill="none" id="User-backto-Manager" style="stroke:#181818;stroke-width:1.0;"/><polygon fill="none" points="1083.87,354.94,1097.2218,368.4208,1102.6399,357.7136,1083.87,354.94" style="stroke:#181818;stroke-width:1.0;"/></g><!--reverse link User to Guest--><g id="link_User_Guest"><path d="M790.4009,371.1526 C781.5709,390.4826 781.37,394.48 776.5,414.56 C749.68,525.07 753.73,559.01 776.5,670.42 C785.08,712.41 800.71,756.01 817.58,795.25 " fill="none" id="User-backto-Guest" style="stroke:#181818;stroke-width:1.0;"/><polygon fill="none" points="797.88,354.78,784.9434,368.6596,795.8585,373.6457,797.88,354.78" style="stroke:#181818;stroke-width:1.0;"/></g><!--reverse link ManagerInterface to Manager--><g id="link_ManagerInterface_Manager"><path codeLine="118" d="M1452.5,366.84 C1452.5,388 1452.5,392.47 1452.5,414.3 " fill="none" id="ManagerInterface-backto-Manager" style="stroke:#181818;stroke-width:1.0;stroke-dasharray:7.0,7.0;"/><polygon fill="none" points="1452.5,348.84,1446.5,366.84,1458.5,366.84,1452.5,348.84" style="stroke:#181818;stroke-width:1.0;"/></g><!--reverse link GuestInterface to Guest--><g id="link_GuestInterface_Guest"><path codeLine="119" d="M908.6178,658.1461 C904.9778,705.0661 901.94,744.28 897.98,795.44 " fill="none" id="GuestInterface-backto-Guest" style="stroke:#181818;stroke-width:1.0;stroke-dasharray:7.0,7.0;"/><polygon fill="none" points="910.01,640.2,902.6357,657.682,914.5998,658.6102,910.01,640.2" style="stroke:#181818;stroke-width:1.0;"/></g><!--link HotelManagementApplication to User--><g id="link_HotelManagementApplication_User"><path codeLine="120" d="M864.5,71.67 C864.5,88.08 864.5,91.22 864.5,113 " fill="none" id="HotelManagementApplication-to-User" style="stroke:#181818;stroke-width:1.0;"/><polygon fill="none" points="864.5,131,870.5,113,858.5,113,864.5,131" style="stroke:#181818;stroke-width:1.0;"/></g><!--link Guest to RoomFacade--><g id="link_Guest_RoomFacade"><path codeLine="121" d="M1254.42,1024.63 C1266.03,1022.12 1260.4126,1024.3498 1272.0226,1020.8098 " fill="none" id="Guest-to-RoomFacade" style="stroke:#181818;stroke-width:1.0;stroke-dasharray:7.0,7.0;"/><polygon fill="none" points="1289.24,1015.56,1270.2726,1015.0706,1273.7725,1026.5489,1289.24,1015.56" style="stroke:#181818;stroke-width:1.0;"/></g><!--reverse link RoomFacade to Guest--><g id="link_RoomFacade_Guest"><path codeLine="124" d="M1277.7617,844.3102 C1266.1517,840.7702 1266.03,841.25 1254.42,838.74 " fill="none" id="RoomFacade-backto-Guest" style="stroke:#181818;stroke-width:1.0;"/><polygon fill="none" points="1289.24,847.81,1284.6675,842.234,1277.7617,844.3102,1282.3342,849.8862,1289.24,847.81" style="stroke:#181818;stroke-width:1.0;"/></g><!--link Manager to RoomFacade--><g id="link_Manager_RoomFacade"><path codeLine="122" d="M1452.5,670.81 C1452.5,689.87 1452.5,691.91 1452.5,712.06 " fill="none" id="Manager-to-RoomFacade" style="stroke:#181818;stroke-width:1.0;stroke-dasharray:7.0,7.0;"/><polygon fill="none" points="1452.5,730.06,1458.5,712.06,1446.5,712.06,1452.5,730.06" style="stroke:#181818;stroke-width:1.0;"/></g><!--reverse link RoomFacade to Room--><g id="link_RoomFacade_Room"><path codeLine="123" d="M1292.8498,722.6878 C1277.6898,711.0878 1271.07,708.26 1254,700.42 C1180,666.41 597.5,672.49 521,700.42 C458.07,723.39 399.59,767.85 352.92,811.7 " fill="none" id="RoomFacade-backto-Room" style="stroke:#181818;stroke-width:1.0;"/><polygon fill="none" points="1302.38,729.98,1300.0457,723.1572,1292.8498,722.6878,1295.1842,729.5106,1302.38,729.98" style="stroke:#181818;stroke-width:1.0;"/></g><!--reverse link Room to Guest--><g id="link_Room_Guest"><path codeLine="125" d="M498.25,931.68 C509.74,931.68 509.24,931.68 520.73,931.68 " fill="none" id="Room-backto-Guest" style="stroke:#181818;stroke-width:1.0;"/><polygon fill="none" points="486.25,931.68,492.25,935.68,498.25,931.68,492.25,927.68,486.25,931.68" style="stroke:#181818;stroke-width:1.0;"/></g><!--SRC=[xLVDZjCm4BxdANmiejqdM5LQ2R6i11n0S44eSfr9QgrZHxRJKdNttHbFVfgqJei4smFGI-APyOndliypgL3SEVR9c9Bj4uQ_1VlihTG5yxiAnXABLgckonNOLY6rPu9NN4Y_6ufgUr-3yn_hifNcKdF5xgpbk_VI-LjIBraH7YurUShJuBsrpaozKi0gAqLtX9Kn2hWEpqV8I7XpmqhmQvCvV2N9Qqfazcgu66GpZoGo7-Km7uNk_6oCp5WcNQNuBlXy0vvBvMONz9JZLx1E6esspqaYgDWVkEO5M0O_F6Wy_1U7Y_raIgrv7wrRjxdKk5lpyf1SXJ6sncQz89SMeHYQu35QGJZkMovu1bIKvdMKbx30FH0wHmc3WgZ2Ge4GWqqrR5D2UAo7JFh8jetip5qgTUeg43ANOifIOOn0dA1sQMuiKgYG6z2na6vjjYbNglKVSHUKv2gcso2S76anQQ6DZbZrY1CJOdWl1bSYGB5ig4cvXPJek9FCk1ybsgmkOXurVsaIXLiR0LAiGJoQ-WWidcKn3AdGpVMFuK0GqpPaJsuYof3WzP3dA-Sj5zXRY08Zq8-gFfPsfHzB-_gFnHq8anm9SVjZq-AN6JAq_Xs2TFxsNKcUML-SSp1Si9-0vlok2nTrmEIB5_H4Fvnf1ukfATM4cVrzlVR5BjLr-yarqeYFfK17_2W1ctC1tRX_w0Nx_zFvJ_NeGvNfxaxK-1ySNaqtV6Syg8P_9MX_LrLA2kxnSxOjK8NVob8mvr4e6hybbxeT6j- -aw_aXC6tJzWKMsboL7dIaImv4twnU5hIV6gsOsV5zQ6hTY5Fv8F-RXQaE18raUdlKBVw2G00]--></g></svg>