<?xml version="1.0" encoding="us-ascii" standalone="no"?><svg xmlns="http://www.w3.org/2000/svg" xmlns:xlink="http://www.w3.org/1999/xlink" contentStyleType="text/css" height="429px" preserveAspectRatio="none" style="width:835px;height:429px;background:#FFFFFF;" version="1.1" viewBox="0 0 835 429" width="835px" zoomAndPan="magnify"><defs/><g><rect fill="#FFFFFF" height="59.1328" style="stroke:#181818;stroke-width:1.0;" width="10" x="339" y="112.4297"/><rect fill="#FFFFFF" height="158.6641" style="stroke:#181818;stroke-width:1.0;" width="10" x="460" y="171.5625"/><rect fill="#FFFFFF" height="58.2656" style="stroke:#181818;stroke-width:1.0;" width="10" x="797" y="200.6953"/><line style="stroke:#181818;stroke-width:0.5;stroke-dasharray:5.0,5.0;" x1="38" x2="38" y1="81.2969" y2="348.2266"/><line style="stroke:#181818;stroke-width:0.5;stroke-dasharray:5.0,5.0;" x1="189" x2="189" y1="81.2969" y2="348.2266"/><line style="stroke:#181818;stroke-width:0.5;stroke-dasharray:5.0,5.0;" x1="344" x2="344" y1="81.2969" y2="348.2266"/><line style="stroke:#181818;stroke-width:0.5;stroke-dasharray:5.0,5.0;" x1="464.5" x2="464.5" y1="81.2969" y2="348.2266"/><line style="stroke:#181818;stroke-width:0.5;stroke-dasharray:5.0,5.0;" x1="801.5" x2="801.5" y1="81.2969" y2="348.2266"/><text fill="#000000" font-family="sans-serif" font-size="14" lengthAdjust="spacing" textLength="60" x="5" y="77.9951">Manager</text><ellipse cx="38" cy="13.5" fill="#E2E2F0" rx="8" ry="8" style="stroke:#181818;stroke-width:0.5;"/><path d="M38,21.5 L38,48.5 M25,29.5 L51,29.5 M38,48.5 L25,63.5 M38,48.5 L51,63.5 " fill="none" style="stroke:#181818;stroke-width:0.5;"/><text fill="#000000" font-family="sans-serif" font-size="14" lengthAdjust="spacing" textLength="60" x="5" y="360.2217">Manager</text><ellipse cx="38" cy="372.0234" fill="#E2E2F0" rx="8" ry="8" style="stroke:#181818;stroke-width:0.5;"/><path d="M38,380.0234 L38,407.0234 M25,388.0234 L51,388.0234 M38,407.0234 L25,422.0234 M38,407.0234 L51,422.0234 " fill="none" style="stroke:#181818;stroke-width:0.5;"/><rect fill="#E2E2F0" height="30.2969" rx="2.5" ry="2.5" style="stroke:#181818;stroke-width:0.5;" width="216" x="81" y="50"/><text fill="#000000" font-family="sans-serif" font-size="14" lengthAdjust="spacing" textLength="202" x="88" y="69.9951">HotelManagementApplication</text><rect fill="#E2E2F0" height="30.2969" rx="2.5" ry="2.5" style="stroke:#181818;stroke-width:0.5;" width="216" x="81" y="347.2266"/><text fill="#000000" font-family="sans-serif" font-size="14" lengthAdjust="spacing" textLength="202" x="88" y="367.2217">HotelManagementApplication</text><rect fill="#E2E2F0" height="30.2969" rx="2.5" ry="2.5" style="stroke:#181818;stroke-width:0.5;" width="74" x="307" y="50"/><text fill="#000000" font-family="sans-serif" font-size="14" lengthAdjust="spacing" textLength="60" x="314" y="69.9951">Manager</text><rect fill="#E2E2F0" height="30.2969" rx="2.5" ry="2.5" style="stroke:#181818;stroke-width:0.5;" width="74" x="307" y="347.2266"/><text fill="#000000" font-family="sans-serif" font-size="14" lengthAdjust="spacing" textLength="60" x="314" y="367.2217">Manager</text><rect fill="#E2E2F0" height="30.2969" rx="2.5" ry="2.5" style="stroke:#181818;stroke-width:0.5;" width="105" x="412.5" y="50"/><text fill="#000000" font-family="sans-serif" font-size="14" lengthAdjust="spacing" textLength="91" x="419.5" y="69.9951">RoomFacade</text><rect fill="#E2E2F0" height="30.2969" rx="2.5" ry="2.5" style="stroke:#181818;stroke-width:0.5;" width="105" x="412.5" y="347.2266"/><text fill="#000000" font-family="sans-serif" font-size="14" lengthAdjust="spacing" textLength="91" x="419.5" y="367.2217">RoomFacade</text><rect fill="#E2E2F0" height="30.2969" rx="2.5" ry="2.5" style="stroke:#181818;stroke-width:0.5;" width="55" x="774.5" y="50"/><text fill="#000000" font-family="sans-serif" font-size="14" lengthAdjust="spacing" textLength="41" x="781.5" y="69.9951">Room</text><rect fill="#E2E2F0" height="30.2969" rx="2.5" ry="2.5" style="stroke:#181818;stroke-width:0.5;" width="55" x="774.5" y="347.2266"/><text fill="#000000" font-family="sans-serif" font-size="14" lengthAdjust="spacing" textLength="41" x="781.5" y="367.2217">Room</text><rect fill="#FFFFFF" height="59.1328" style="stroke:#181818;stroke-width:1.0;" width="10" x="339" y="112.4297"/><rect fill="#FFFFFF" height="158.6641" style="stroke:#181818;stroke-width:1.0;" width="10" x="460" y="171.5625"/><rect fill="#FFFFFF" height="58.2656" style="stroke:#181818;stroke-width:1.0;" width="10" x="797" y="200.6953"/><polygon fill="#181818" points="327,108.4297,337,112.4297,327,116.4297,331,112.4297" style="stroke:#181818;stroke-width:1.0;"/><line style="stroke:#181818;stroke-width:1.0;" x1="189" x2="333" y1="112.4297" y2="112.4297"/><text fill="#000000" font-family="sans-serif" font-size="13" lengthAdjust="spacing" textLength="92" x="196" y="107.3638">create_room()</text><polygon fill="#181818" points="448,167.5625,458,171.5625,448,175.5625,452,171.5625" style="stroke:#181818;stroke-width:1.0;"/><line style="stroke:#181818;stroke-width:1.0;" x1="344" x2="454" y1="171.5625" y2="171.5625"/><text fill="#000000" font-family="sans-serif" font-size="13" lengthAdjust="spacing" textLength="92" x="351" y="166.4966">create_room()</text><polygon fill="#181818" points="448,196.6953,458,200.6953,448,204.6953,452,200.6953" style="stroke:#181818;stroke-width:1.0;"/><line style="stroke:#181818;stroke-width:1.0;" x1="38" x2="454" y1="200.6953" y2="200.6953"/><text fill="#000000" font-family="sans-serif" font-size="13" lengthAdjust="spacing" textLength="111" x="45" y="195.6294">Enter room detail</text><polygon fill="#181818" points="785,225.8281,795,229.8281,785,233.8281,789,229.8281" style="stroke:#181818;stroke-width:1.0;"/><line style="stroke:#181818;stroke-width:1.0;" x1="470" x2="791" y1="229.8281" y2="229.8281"/><text fill="#000000" font-family="sans-serif" font-size="13" lengthAdjust="spacing" textLength="303" x="477" y="224.7622">new Room(type, room_number, capacity, price)</text><polygon fill="#181818" points="481,254.9609,471,258.9609,481,262.9609,477,258.9609" style="stroke:#181818;stroke-width:1.0;"/><line style="stroke:#181818;stroke-width:1.0;stroke-dasharray:2.0,2.0;" x1="475" x2="801" y1="258.9609" y2="258.9609"/><text fill="#000000" font-family="sans-serif" font-size="13" lengthAdjust="spacing" textLength="95" x="487" y="253.895">Room instance</text><line style="stroke:#181818;stroke-width:1.0;" x1="470" x2="512" y1="288.0938" y2="288.0938"/><line style="stroke:#181818;stroke-width:1.0;" x1="512" x2="512" y1="288.0938" y2="301.0938"/><line style="stroke:#181818;stroke-width:1.0;" x1="471" x2="512" y1="301.0938" y2="301.0938"/><polygon fill="#181818" points="481,297.0938,471,301.0938,481,305.0938,477,301.0938" style="stroke:#181818;stroke-width:1.0;"/><text fill="#000000" font-family="sans-serif" font-size="13" lengthAdjust="spacing" textLength="101" x="477" y="283.0278">add to ArrayList</text><polygon fill="#181818" points="200,326.2266,190,330.2266,200,334.2266,196,330.2266" style="stroke:#181818;stroke-width:1.0;"/><line style="stroke:#181818;stroke-width:1.0;stroke-dasharray:2.0,2.0;" x1="194" x2="464" y1="330.2266" y2="330.2266"/><text fill="#000000" font-family="sans-serif" font-size="13" lengthAdjust="spacing" textLength="165" x="206" y="325.1606">Room added confirmation</text><!--SRC=[PP51QiCm44NtEiMGLGBE1R8eU56HHRtn1S9qD2q3jYJaQOjltv7jj35P3k-_pqT2qbIWmuYVN5p6eaAICIeShabvMCd8KTkS1o5KIV40EC6rQ_VvhMI1tHxrAOqU2GCljFVFU0NEEUk5ymjqS04gZCgtOlXuSaWgttPRkNE1_qwJkchq_abvI9dqRtYtZLsz2xn6jQDQ45XHXeUmwtrDMNda7wXRZpfdRfRuBNwDxrmQ8Cn8edC3kGZnoVLmle-g3aYS52FnVhhnUmf304tGbeBpcqowC8FrGROEYt00Il53ohXynQxD_m80]--></g></svg>