<?xml version="1.0" encoding="us-ascii" standalone="no"?><svg xmlns="http://www.w3.org/2000/svg" xmlns:xlink="http://www.w3.org/1999/xlink" contentStyleType="text/css" height="300px" preserveAspectRatio="none" style="width:775px;height:300px;background:#FFFFFF;" version="1.1" viewBox="0 0 775 300" width="775px" zoomAndPan="magnify"><defs/><g><rect fill="#FFFFFF" height="97.3984" style="stroke:#181818;stroke-width:1.0;" width="10" x="339" y="112.4297"/><rect fill="#FFFFFF" height="68.2656" style="stroke:#181818;stroke-width:1.0;" width="10" x="481" y="141.5625"/><rect fill="none" height="46.2656" style="stroke:#000000;stroke-width:1.5;" width="346" x="423.5" y="156.5625"/><line style="stroke:#181818;stroke-width:0.5;stroke-dasharray:5.0,5.0;" x1="38" x2="38" y1="81.2969" y2="219.8281"/><line style="stroke:#181818;stroke-width:0.5;stroke-dasharray:5.0,5.0;" x1="189" x2="189" y1="81.2969" y2="219.8281"/><line style="stroke:#181818;stroke-width:0.5;stroke-dasharray:5.0,5.0;" x1="344" x2="344" y1="81.2969" y2="219.8281"/><line style="stroke:#181818;stroke-width:0.5;stroke-dasharray:5.0,5.0;" x1="485.5" x2="485.5" y1="81.2969" y2="219.8281"/><line style="stroke:#181818;stroke-width:0.5;stroke-dasharray:5.0,5.0;" x1="601" x2="601" y1="81.2969" y2="219.8281"/><text fill="#000000" font-family="sans-serif" font-size="14" lengthAdjust="spacing" textLength="60" x="5" y="77.9951">Manager</text><ellipse cx="38" cy="13.5" fill="#E2E2F0" rx="8" ry="8" style="stroke:#181818;stroke-width:0.5;"/><path d="M38,21.5 L38,48.5 M25,29.5 L51,29.5 M38,48.5 L25,63.5 M38,48.5 L51,63.5 " fill="none" style="stroke:#181818;stroke-width:0.5;"/><text fill="#000000" font-family="sans-serif" font-size="14" lengthAdjust="spacing" textLength="60" x="5" y="231.8232">Manager</text><ellipse cx="38" cy="243.625" fill="#E2E2F0" rx="8" ry="8" style="stroke:#181818;stroke-width:0.5;"/><path d="M38,251.625 L38,278.625 M25,259.625 L51,259.625 M38,278.625 L25,293.625 M38,278.625 L51,293.625 " fill="none" style="stroke:#181818;stroke-width:0.5;"/><rect fill="#E2E2F0" height="30.2969" rx="2.5" ry="2.5" style="stroke:#181818;stroke-width:0.5;" width="216" x="81" y="50"/><text fill="#000000" font-family="sans-serif" font-size="14" lengthAdjust="spacing" textLength="202" x="88" y="69.9951">HotelManagementApplication</text><rect fill="#E2E2F0" height="30.2969" rx="2.5" ry="2.5" style="stroke:#181818;stroke-width:0.5;" width="216" x="81" y="218.8281"/><text fill="#000000" font-family="sans-serif" font-size="14" lengthAdjust="spacing" textLength="202" x="88" y="238.8232">HotelManagementApplication</text><rect fill="#E2E2F0" height="30.2969" rx="2.5" ry="2.5" style="stroke:#181818;stroke-width:0.5;" width="74" x="307" y="50"/><text fill="#000000" font-family="sans-serif" font-size="14" lengthAdjust="spacing" textLength="60" x="314" y="69.9951">Manager</text><rect fill="#E2E2F0" height="30.2969" rx="2.5" ry="2.5" style="stroke:#181818;stroke-width:0.5;" width="74" x="307" y="218.8281"/><text fill="#000000" font-family="sans-serif" font-size="14" lengthAdjust="spacing" textLength="60" x="314" y="238.8232">Manager</text><rect fill="#E2E2F0" height="30.2969" rx="2.5" ry="2.5" style="stroke:#181818;stroke-width:0.5;" width="105" x="433.5" y="50"/><text fill="#000000" font-family="sans-serif" font-size="14" lengthAdjust="spacing" textLength="91" x="440.5" y="69.9951">RoomFacade</text><rect fill="#E2E2F0" height="30.2969" rx="2.5" ry="2.5" style="stroke:#181818;stroke-width:0.5;" width="105" x="433.5" y="218.8281"/><text fill="#000000" font-family="sans-serif" font-size="14" lengthAdjust="spacing" textLength="91" x="440.5" y="238.8232">RoomFacade</text><rect fill="#E2E2F0" height="30.2969" rx="2.5" ry="2.5" style="stroke:#181818;stroke-width:0.5;" width="56" x="573" y="50"/><text fill="#000000" font-family="sans-serif" font-size="14" lengthAdjust="spacing" textLength="42" x="580" y="69.9951">Guest</text><rect fill="#E2E2F0" height="30.2969" rx="2.5" ry="2.5" style="stroke:#181818;stroke-width:0.5;" width="56" x="573" y="218.8281"/><text fill="#000000" font-family="sans-serif" font-size="14" lengthAdjust="spacing" textLength="42" x="580" y="238.8232">Guest</text><rect fill="#FFFFFF" height="97.3984" style="stroke:#181818;stroke-width:1.0;" width="10" x="339" y="112.4297"/><rect fill="#FFFFFF" height="68.2656" style="stroke:#181818;stroke-width:1.0;" width="10" x="481" y="141.5625"/><polygon fill="#181818" points="327,108.4297,337,112.4297,327,116.4297,331,112.4297" style="stroke:#181818;stroke-width:1.0;"/><line style="stroke:#181818;stroke-width:1.0;" x1="189" x2="333" y1="112.4297" y2="112.4297"/><text fill="#000000" font-family="sans-serif" font-size="13" lengthAdjust="spacing" textLength="113" x="196" y="107.3638">show_all_guests()</text><polygon fill="#181818" points="469,137.5625,479,141.5625,469,145.5625,473,141.5625" style="stroke:#181818;stroke-width:1.0;"/><line style="stroke:#181818;stroke-width:1.0;" x1="349" x2="475" y1="141.5625" y2="141.5625"/><text fill="#000000" font-family="sans-serif" font-size="13" lengthAdjust="spacing" textLength="113" x="356" y="136.4966">show_all_guests()</text><path d="M423.5,156.5625 L500.5,156.5625 L500.5,163.6953 L490.5,173.6953 L423.5,173.6953 L423.5,156.5625 " fill="#EEEEEE" style="stroke:#000000;stroke-width:1.5;"/><rect fill="none" height="46.2656" style="stroke:#000000;stroke-width:1.5;" width="346" x="423.5" y="156.5625"/><text fill="#000000" font-family="sans-serif" font-size="13" font-weight="bold" lengthAdjust="spacing" textLength="32" x="438.5" y="169.6294">loop</text><text fill="#000000" font-family="sans-serif" font-size="11" font-weight="bold" lengthAdjust="spacing" textLength="249" x="515.5" y="168.7729">[for each registered guest in ArrayList]</text><polygon fill="#181818" points="589,190.8281,599,194.8281,589,198.8281,593,194.8281" style="stroke:#181818;stroke-width:1.0;"/><line style="stroke:#181818;stroke-width:1.0;" x1="491" x2="595" y1="194.8281" y2="194.8281"/><text fill="#000000" font-family="sans-serif" font-size="13" lengthAdjust="spacing" textLength="86" x="498" y="189.7622">show_name()</text><!--SRC=[VOyn3i8m301tly9YWe4FC21rQJkGfH-ehDIqaT8aIWo8t-CMaEY2Hz_fB9ELcD5Ge94p9ChYh4iK17Tj5FPlCdEGAYNlB8cBOOTKi3NLrlz4LcYsg8jnhidIm2ljwYrkRbna9Gs0Tl5uHeCdB5DyzEHzFov2sH-0hBWx2Ui1C8lMrVyzFULZJ7ZLBvdiX9b7LuGp3xZQw09METFpecj07KrgkFbs0ysiHGu3BYM0WN_hi5cO5m00]--></g></svg>