<?xml version="1.0" encoding="us-ascii" standalone="no"?><svg xmlns="http://www.w3.org/2000/svg" xmlns:xlink="http://www.w3.org/1999/xlink" contentStyleType="text/css" height="603px" preserveAspectRatio="none" style="width:1029px;height:603px;background:#FFFFFF;" version="1.1" viewBox="0 0 1029 603" width="1029px" zoomAndPan="magnify"><defs/><g><!--cluster Main Menu--><g id="cluster_Main Menu"><path d="M115.5,214 L200.5,214 A3.75,3.75 0 0 1 203,216.5 L210,236.2969 L317.45,236.2969 A2.5,2.5 0 0 1 319.95,238.7969 L319.95,367.5 A2.5,2.5 0 0 1 317.45,370 L115.5,370 A2.5,2.5 0 0 1 113,367.5 L113,216.5 A2.5,2.5 0 0 1 115.5,214 " fill="none" style="stroke:#000000;stroke-width:1.5;"/><line style="stroke:#000000;stroke-width:1.5;" x1="113" x2="210" y1="236.2969" y2="236.2969"/><text fill="#000000" font-family="sans-serif" font-size="14" font-weight="bold" lengthAdjust="spacing" textLength="84" x="117" y="228.9951">Main Menu</text></g><!--cluster Room Management Menu--><g id="cluster_Room Management Menu"><path d="M435.42,6 L634.42,6 A3.75,3.75 0 0 1 636.92,8.5 L643.92,28.2969 L647.08,28.2969 A2.5,2.5 0 0 1 649.58,30.7969 L649.58,303.5 A2.5,2.5 0 0 1 647.08,306 L435.42,306 A2.5,2.5 0 0 1 432.92,303.5 L432.92,8.5 A2.5,2.5 0 0 1 435.42,6 " fill="none" style="stroke:#000000;stroke-width:1.5;"/><line style="stroke:#000000;stroke-width:1.5;" x1="432.92" x2="643.92" y1="28.2969" y2="28.2969"/><text fill="#000000" font-family="sans-serif" font-size="14" font-weight="bold" lengthAdjust="spacing" textLength="198" x="436.92" y="20.9951">Room Management Menu</text></g><!--cluster Reports Menu--><g id="cluster_Reports Menu"><path d="M407.45,330 L518.45,330 A3.75,3.75 0 0 1 520.95,332.5 L527.95,352.2969 L1020.24,352.2969 A2.5,2.5 0 0 1 1022.74,354.7969 L1022.74,593.5 A2.5,2.5 0 0 1 1020.24,596 L407.45,596 A2.5,2.5 0 0 1 404.95,593.5 L404.95,332.5 A2.5,2.5 0 0 1 407.45,330 " fill="none" style="stroke:#000000;stroke-width:1.5;"/><line style="stroke:#000000;stroke-width:1.5;" x1="404.95" x2="527.95" y1="352.2969" y2="352.2969"/><text fill="#000000" font-family="sans-serif" font-size="14" font-weight="bold" lengthAdjust="spacing" textLength="110" x="408.95" y="344.9951">Reports Menu</text></g><g id="elem_RM"><ellipse cx="216.4744" cy="269.0049" fill="#F1F1F1" rx="87.4744" ry="19.8949" style="stroke:#181818;stroke-width:0.5;"/><text fill="#000000" font-family="sans-serif" font-size="14" lengthAdjust="spacing" textLength="136" x="148.4744" y="271.8516">Room Management</text></g><g id="elem_R"><ellipse cx="216.4679" cy="339.0016" fill="#F1F1F1" rx="51.1079" ry="14.7016" style="stroke:#181818;stroke-width:0.5;"/><text fill="#000000" font-family="sans-serif" font-size="14" lengthAdjust="spacing" textLength="55" x="185.9679" y="342.7492">Reports</text></g><g id="elem_CNR"><ellipse cx="541.2532" cy="59.9986" fill="#F1F1F1" rx="85.2932" ry="19.4586" style="stroke:#181818;stroke-width:0.5;"/><text fill="#000000" font-family="sans-serif" font-size="14" lengthAdjust="spacing" textLength="131" x="475.7532" y="62.8453">Create a new room</text></g><g id="elem_DR"><ellipse cx="541.2493" cy="130.9959" fill="#F1F1F1" rx="71.9293" ry="16.7859" style="stroke:#181818;stroke-width:0.5;"/><text fill="#000000" font-family="sans-serif" font-size="14" lengthAdjust="spacing" textLength="98" x="489.2493" y="134.7434">Delete a room</text></g><g id="elem_ER"><ellipse cx="541.2453" cy="197.9971" fill="#F1F1F1" rx="64.7353" ry="15.3471" style="stroke:#181818;stroke-width:0.5;"/><text fill="#000000" font-family="sans-serif" font-size="14" lengthAdjust="spacing" textLength="78" x="499.2453" y="201.7446">Edit a room</text></g><g id="elem_RNG"><ellipse cx="541.2518" cy="268.9964" fill="#F1F1F1" rx="92.3318" ry="20.8664" style="stroke:#181818;stroke-width:0.5;"/><text fill="#000000" font-family="sans-serif" font-size="14" lengthAdjust="spacing" textLength="147" x="467.7518" y="271.843">Register a new guest</text></g><g id="elem_VAR"><ellipse cx="541.2493" cy="385.9959" fill="#F1F1F1" rx="71.9293" ry="16.7859" style="stroke:#181818;stroke-width:0.5;"/><text fill="#000000" font-family="sans-serif" font-size="14" lengthAdjust="spacing" textLength="98" x="489.2493" y="389.7434">View all rooms</text></g><g id="elem_VAAR"><ellipse cx="890.6526" cy="558.0025" fill="#F1F1F1" rx="98.1626" ry="22.0325" style="stroke:#181818;stroke-width:0.5;"/><text fill="#000000" font-family="sans-serif" font-size="14" lengthAdjust="spacing" textLength="160" x="810.6526" y="560.8492">View all available rooms</text></g><g id="elem_VNAR"><ellipse cx="890.6517" cy="476.0043" fill="#F1F1F1" rx="112.3717" ry="24.8743" style="stroke:#181818;stroke-width:0.5;"/><text fill="#000000" font-family="sans-serif" font-size="14" lengthAdjust="spacing" textLength="191" x="795.1517" y="478.851">View all non available rooms</text></g><g id="elem_VGSR"><ellipse cx="541.2527" cy="464.0005" fill="#F1F1F1" rx="120.3027" ry="26.4605" style="stroke:#181818;stroke-width:0.5;"/><text fill="#000000" font-family="sans-serif" font-size="14" lengthAdjust="spacing" textLength="208" x="437.2527" y="466.8472">View guests in a specific room</text></g><g id="elem_VRFG"><ellipse cx="890.6537" cy="390.9987" fill="#F1F1F1" rx="116.0937" ry="25.6187" style="stroke:#181818;stroke-width:0.5;"/><text fill="#000000" font-family="sans-serif" font-size="14" lengthAdjust="spacing" textLength="199" x="791.1537" y="393.8454">View rooms for a given guest</text></g><g id="elem_VRG"><ellipse cx="541.2486" cy="549.0017" fill="#F1F1F1" rx="105.9086" ry="23.5817" style="stroke:#181818;stroke-width:0.5;"/><text fill="#000000" font-family="sans-serif" font-size="14" lengthAdjust="spacing" textLength="177" x="452.7486" y="551.8484">View all registered guests</text></g><!--entity Manager--><g id="elem_Manager"><ellipse cx="36" cy="275.35" fill="#F1F1F1" rx="8" ry="8" style="stroke:#181818;stroke-width:0.5;"/><path d="M36,283.35 L36,310.35 M23,291.35 L49,291.35 M36,310.35 L23,325.35 M36,310.35 L49,325.35 " fill="none" style="stroke:#181818;stroke-width:0.5;"/><text fill="#000000" font-family="sans-serif" font-size="14" lengthAdjust="spacing" textLength="60" x="6" y="339.8451">Manager</text></g><!--link Manager to RM--><g id="link_Manager_RM"><path d="M66.47,299.06 C89.14,294.48 115.4587,289.1777 144.1287,283.3877 " fill="none" id="Manager-to-RM" style="stroke:#181818;stroke-width:1.0;"/><polygon fill="#181818" points="150.01,282.2,140.3963,280.0608,145.1089,283.1898,141.9799,287.9025,150.01,282.2" style="stroke:#181818;stroke-width:1.0;"/></g><!--link Manager to R--><g id="link_Manager_R"><path d="M66.47,310.61 C95.48,316.14 134.1861,323.5168 167.0361,329.7768 " fill="none" id="Manager-to-R" style="stroke:#181818;stroke-width:1.0;"/><polygon fill="#181818" points="172.93,330.9,164.8379,325.286,168.0184,329.964,163.3403,333.1445,172.93,330.9" style="stroke:#181818;stroke-width:1.0;"/></g><!--reverse link RM to CNR--><g id="link_RM_CNR"><path d="M235.1566,244.1952 C262.4266,207.3052 322.69,133.76 396.95,97 C420.21,85.49 447.42,77.3 471.84,71.6 " fill="none" id="RM-backto-CNR" style="stroke:#181818;stroke-width:1.0;stroke-dasharray:7.0,7.0;"/><polygon fill="#181818" points="231.59,249.02,240.1565,244.1605,234.5622,244.9993,233.7234,239.405,231.59,249.02" style="stroke:#181818;stroke-width:1.0;"/><text fill="#000000" font-family="sans-serif" font-size="13" lengthAdjust="spacing" textLength="51" x="336.95" y="100.0669">extends</text></g><!--reverse link RM to DR--><g id="link_RM_DR"><path d="M249.7305,246.3746 C283.8405,223.1646 339.74,187.79 396.95,165 C424.03,154.21 455.41,146.29 481.89,140.82 " fill="none" id="RM-backto-DR" style="stroke:#181818;stroke-width:1.0;stroke-dasharray:7.0,7.0;"/><polygon fill="#181818" points="244.77,249.75,254.461,247.994,248.9038,246.9372,249.9605,241.3799,244.77,249.75" style="stroke:#181818;stroke-width:1.0;"/><text fill="#000000" font-family="sans-serif" font-size="13" lengthAdjust="spacing" textLength="51" x="336.95" y="166.0669">extends</text></g><!--reverse link RM to ER--><g id="link_RM_ER"><path d="M286.3399,253.851 C348.5299,240.171 436.39,220.85 492.62,208.48 " fill="none" id="RM-backto-ER" style="stroke:#181818;stroke-width:1.0;stroke-dasharray:7.0,7.0;"/><polygon fill="#181818" points="280.48,255.14,290.1292,257.1131,285.3633,254.0658,288.4105,249.2999,280.48,255.14" style="stroke:#181818;stroke-width:1.0;"/><text fill="#000000" font-family="sans-serif" font-size="13" lengthAdjust="spacing" textLength="51" x="336.95" y="228.0669">extends</text></g><!--reverse link RM to RNG--><g id="link_RM_RNG"><path d="M310.4,269 C355.02,269 403.38,269 448.66,269 " fill="none" id="RM-backto-RNG" style="stroke:#181818;stroke-width:1.0;stroke-dasharray:7.0,7.0;"/><polygon fill="#181818" points="304.4,269,313.4,273,309.4,269,313.4,265,304.4,269" style="stroke:#181818;stroke-width:1.0;"/><text fill="#000000" font-family="sans-serif" font-size="13" lengthAdjust="spacing" textLength="51" x="336.95" y="265.0669">extends</text></g><!--reverse link R to VAR--><g id="link_R_VAR"><path d="M268.6373,346.445 C325.1973,354.685 416.31,367.95 479.37,377.13 " fill="none" id="R-backto-VAR" style="stroke:#181818;stroke-width:1.0;stroke-dasharray:7.0,7.0;"/><polygon fill="#181818" points="262.7,345.58,271.0293,350.8357,267.6478,346.3008,272.1826,342.9193,262.7,345.58" style="stroke:#181818;stroke-width:1.0;"/><text fill="#000000" font-family="sans-serif" font-size="13" lengthAdjust="spacing" textLength="51" x="336.95" y="353.0669">extends</text></g><!--reverse link VAR to VAAR--><g id="link_VAR_VAAR"><path d="M608.5981,396.4362 C628.5981,401.4762 644.3,407.84 661.55,420 C680.3,433.22 675.12,446 691.55,462 C723.44,493.04 734.76,498.08 774.55,518 C791.86,526.66 811.5,534.24 829.59,540.41 " fill="none" id="VAR-backto-VAAR" style="stroke:#181818;stroke-width:1.0;stroke-dasharray:7.0,7.0;"/><polygon fill="#181818" points="602.78,394.97,610.5297,401.048,607.6284,396.1918,612.4846,393.2905,602.78,394.97" style="stroke:#181818;stroke-width:1.0;"/><text fill="#000000" font-family="sans-serif" font-size="13" lengthAdjust="spacing" textLength="51" x="692.55" y="458.0669">extends</text></g><!--reverse link VAR to VNAR--><g id="link_VAR_VNAR"><path d="M596.3682,400.0151 C654.9082,415.1851 748.33,439.39 816.32,457 " fill="none" id="VAR-backto-VNAR" style="stroke:#181818;stroke-width:1.0;stroke-dasharray:7.0,7.0;"/><polygon fill="#181818" points="590.56,398.51,598.2688,404.6398,595.4001,399.7643,600.2756,396.8956,590.56,398.51" style="stroke:#181818;stroke-width:1.0;"/><text fill="#000000" font-family="sans-serif" font-size="13" lengthAdjust="spacing" textLength="51" x="692.55" y="422.0669">extends</text></g><!--reverse link R to VGSR--><g id="link_R_VGSR"><path d="M248.5852,354.4957 C283.0452,371.4257 340.98,398.87 396.95,420 C418.98,428.32 443.35,436.25 465.64,443.04 " fill="none" id="R-backto-VGSR" style="stroke:#181818;stroke-width:1.0;stroke-dasharray:7.0,7.0;"/><polygon fill="#181818" points="243.2,351.85,249.514,359.4087,247.6877,354.0548,253.0416,352.2284,243.2,351.85" style="stroke:#181818;stroke-width:1.0;"/><text fill="#000000" font-family="sans-serif" font-size="13" lengthAdjust="spacing" textLength="51" x="336.95" y="392.0669">extends</text></g><!--reverse link VAR to VRFG--><g id="link_VAR_VRFG"><path d="M619.3894,387.1067 C665.7394,387.7767 721.27,388.58 774.5,389.34 " fill="none" id="VAR-backto-VRFG" style="stroke:#181818;stroke-width:1.0;stroke-dasharray:7.0,7.0;"/><polygon fill="#181818" points="613.39,387.02,622.3312,391.1497,618.3895,387.0923,622.4469,383.1505,613.39,387.02" style="stroke:#181818;stroke-width:1.0;"/><text fill="#000000" font-family="sans-serif" font-size="13" lengthAdjust="spacing" textLength="51" x="692.55" y="385.0669">extends</text></g><!--reverse link R to VRG--><g id="link_R_VRG"><path d="M232.5392,358.3423 C258.5892,391.0323 322.54,465.69 396.95,508 C416.41,519.06 439.08,527.33 460.57,533.43 " fill="none" id="R-backto-VRG" style="stroke:#181818;stroke-width:1.0;stroke-dasharray:7.0,7.0;"/><polygon fill="#181818" points="228.8,353.65,231.2806,363.1813,231.916,357.5603,237.5371,358.1957,228.8,353.65" style="stroke:#181818;stroke-width:1.0;"/><text fill="#000000" font-family="sans-serif" font-size="13" lengthAdjust="spacing" textLength="51" x="336.95" y="462.0669">extends</text></g><!--SRC=[TLBBReGm3BpdAwozxtv0LLMg5ie93gd4tGL3ex89IiAsKjL_RmWfvH4uXV6CxPcaeyQ2LQ15-swX5fegAvHaM5cb8KU9BMd6Ugm-t0bEEGe9ESdX1DyCt3SOgj2u2bVg5WGtalO4Q83d6mxrIbiprTZFekz67HznrOIM047I9sYdy8sk1L_J4kh8qsPAic6ajR3BUigtUxR2MD9XL3kG2OQAZAttdXp5zos54sFN-K6Jw_AP7t3mZgB3juvMx4EwL38kAQ8IRy60kpm4qrCb6b7z-o-prvZ8TuL6ZJcquavoaKJ9Nx8Zjo4zgiFO8CZ6vCAJWlFvQNmUgr_66C_XyN8Px_I1lYp9sln1oGv9TuYxdXbYt4Cky1bovu35m6811iZ5ikSvuriUdv5V]--></g></svg>