<?xml version="1.0" encoding="us-ascii" standalone="no"?><svg xmlns="http://www.w3.org/2000/svg" xmlns:xlink="http://www.w3.org/1999/xlink" contentStyleType="text/css" height="337px" preserveAspectRatio="none" style="width:631px;height:337px;background:#FFFFFF;" version="1.1" viewBox="0 0 631 337" width="631px" zoomAndPan="magnify"><defs/><g><!--cluster Guest Menu--><g id="cluster_Guest Menu"><path d="M97.5,6 L193.5,6 A3.75,3.75 0 0 1 196,8.5 L203,28.2969 L621.51,28.2969 A2.5,2.5 0 0 1 624.01,30.7969 L624.01,327.5 A2.5,2.5 0 0 1 621.51,330 L97.5,330 A2.5,2.5 0 0 1 95,327.5 L95,8.5 A2.5,2.5 0 0 1 97.5,6 " fill="none" style="stroke:#000000;stroke-width:1.5;"/><line style="stroke:#000000;stroke-width:1.5;" x1="95" x2="203" y1="28.2969" y2="28.2969"/><text fill="#000000" font-family="sans-serif" font-size="14" font-weight="bold" lengthAdjust="spacing" textLength="95" x="99" y="20.9951">Guest Menu</text></g><g id="elem_VAR"><ellipse cx="198.4693" cy="89.9959" fill="#F1F1F1" rx="71.9293" ry="16.7859" style="stroke:#181818;stroke-width:0.5;"/><text fill="#000000" font-family="sans-serif" font-size="14" lengthAdjust="spacing" textLength="98" x="146.4693" y="93.7434">View all rooms</text></g><g id="elem_VAAR"><ellipse cx="503.4844" cy="61.0029" fill="#F1F1F1" rx="90.1144" ry="20.4229" style="stroke:#181818;stroke-width:0.5;"/><text fill="#000000" font-family="sans-serif" font-size="14" lengthAdjust="spacing" textLength="142" x="432.4844" y="63.8496">View available rooms</text></g><g id="elem_VNAR"><ellipse cx="503.4829" cy="213.9966" fill="#F1F1F1" rx="104.5329" ry="23.3066" style="stroke:#181818;stroke-width:0.5;"/><text fill="#000000" font-family="sans-serif" font-size="14" lengthAdjust="spacing" textLength="174" x="416.4829" y="216.8433">View non-available rooms</text></g><g id="elem_BR"><ellipse cx="198.47" cy="157.998" fill="#F1F1F1" rx="68.24" ry="16.048" style="stroke:#181818;stroke-width:0.5;"/><text fill="#000000" font-family="sans-serif" font-size="14" lengthAdjust="spacing" textLength="88" x="151.47" y="161.7456">Book a room</text></g><g id="elem_VBR"><ellipse cx="503.4828" cy="136.0026" fill="#F1F1F1" rx="87.9128" ry="19.9826" style="stroke:#181818;stroke-width:0.5;"/><text fill="#000000" font-family="sans-serif" font-size="14" lengthAdjust="spacing" textLength="137" x="434.9828" y="138.8492">View booked rooms</text></g><g id="elem_AGR"><ellipse cx="503.4829" cy="293.0046" fill="#F1F1F1" rx="93.2229" ry="21.0446" style="stroke:#181818;stroke-width:0.5;"/><text fill="#000000" font-family="sans-serif" font-size="14" lengthAdjust="spacing" textLength="149" x="428.9829" y="295.8513">Add guests to a room</text></g><g id="elem_CO"><ellipse cx="198.4664" cy="224.0022" fill="#F1F1F1" rx="60.0664" ry="14.7722" style="stroke:#181818;stroke-width:0.5;"/><text fill="#000000" font-family="sans-serif" font-size="14" lengthAdjust="spacing" textLength="67" x="161.9664" y="227.7498">Checkout</text></g><g id="elem_VAD"><ellipse cx="198.4744" cy="294.0049" fill="#F1F1F1" rx="87.4744" ry="19.8949" style="stroke:#181818;stroke-width:0.5;"/><text fill="#000000" font-family="sans-serif" font-size="14" lengthAdjust="spacing" textLength="136" x="130.4744" y="296.8516">View Account Detail</text></g><!--entity Guest--><g id="elem_Guest"><ellipse cx="27" cy="168.35" fill="#F1F1F1" rx="8" ry="8" style="stroke:#181818;stroke-width:0.5;"/><path d="M27,176.35 L27,203.35 M14,184.35 L40,184.35 M27,203.35 L14,218.35 M27,203.35 L40,218.35 " fill="none" style="stroke:#181818;stroke-width:0.5;"/><text fill="#000000" font-family="sans-serif" font-size="14" lengthAdjust="spacing" textLength="42" x="6" y="232.8451">Guest</text></g><!--link Guest to VAR--><g id="link_Guest_VAR"><path d="M48.3,164.31 C58.36,150.1 71.66,134.46 87,124 C103,113.1 116.8636,107.2028 135.1236,102.0728 " fill="none" id="Guest-to-VAR" style="stroke:#181818;stroke-width:1.0;"/><polygon fill="#181818" points="140.9,100.45,131.1536,99.0333,136.0864,101.8024,133.3173,106.7351,140.9,100.45" style="stroke:#181818;stroke-width:1.0;"/></g><!--reverse link VAR to VAAR--><g id="link_VAR_VAAR"><path d="M271.5727,83.0987 C316.8427,78.7687 371.25,73.56 419.72,68.92 " fill="none" id="VAR-backto-VAAR" style="stroke:#181818;stroke-width:1.0;stroke-dasharray:7.0,7.0;"/><polygon fill="#181818" points="265.6,83.67,274.94,86.7949,270.5773,83.1939,274.1783,78.8312,265.6,83.67" style="stroke:#181818;stroke-width:1.0;"/><text fill="#000000" font-family="sans-serif" font-size="13" lengthAdjust="spacing" textLength="51" x="316.95" y="71.0669">extends</text></g><!--reverse link VAR to VNAR--><g id="link_VAR_VNAR"><path d="M244.221,106.4414 C259.191,112.1914 270.72,116.97 285.95,124 C299.67,130.33 302.24,133.64 315.95,140 C359.41,160.15 409.99,180 447.52,194.07 " fill="none" id="VAR-backto-VNAR" style="stroke:#181818;stroke-width:1.0;stroke-dasharray:7.0,7.0;"/><polygon fill="#181818" points="238.62,104.29,245.5873,111.2511,243.2875,106.0828,248.4558,103.783,238.62,104.29" style="stroke:#181818;stroke-width:1.0;"/><text fill="#000000" font-family="sans-serif" font-size="13" lengthAdjust="spacing" textLength="51" x="316.95" y="136.0669">extends</text></g><!--link Guest to BR--><g id="link_Guest_BR"><path d="M48.44,193.18 C73.18,187.34 109.8206,178.6887 143.1106,170.8287 " fill="none" id="Guest-to-BR" style="stroke:#181818;stroke-width:1.0;"/><polygon fill="#181818" points="148.95,169.45,139.2717,167.6251,144.0838,170.5989,141.11,175.4111,148.95,169.45" style="stroke:#181818;stroke-width:1.0;"/></g><!--reverse link VAR to VBR--><g id="link_VAR_VBR"><path d="M265.6321,100.0403 C314.3921,107.4403 377.32,117 429.26,124.88 " fill="none" id="VAR-backto-VBR" style="stroke:#181818;stroke-width:1.0;stroke-dasharray:7.0,7.0;"/><polygon fill="#181818" points="259.7,99.14,267.9979,104.4451,264.6434,99.8902,269.1983,96.5357,259.7,99.14" style="stroke:#181818;stroke-width:1.0;"/><text fill="#000000" font-family="sans-serif" font-size="13" lengthAdjust="spacing" textLength="51" x="316.95" y="105.0669">extends</text></g><!--reverse link BR to AGR--><g id="link_BR_AGR"><path d="M242.578,173.6231 C257.958,179.4731 270.2,184.55 285.95,192 C337.93,216.58 346.69,231.02 398.95,255 C415.13,262.43 433.22,269.47 449.7,275.43 " fill="none" id="BR-backto-AGR" style="stroke:#181818;stroke-width:1.0;stroke-dasharray:7.0,7.0;"/><polygon fill="#181818" points="236.97,171.49,243.96,178.4283,241.6434,173.2676,246.8041,170.951,236.97,171.49" style="stroke:#181818;stroke-width:1.0;"/><text fill="#000000" font-family="sans-serif" font-size="13" lengthAdjust="spacing" textLength="51" x="316.95" y="205.0669">extends</text></g><!--link Guest to CO--><g id="link_Guest_CO"><path d="M48.44,201.14 C72.65,204.85 107.9195,210.2593 140.8695,215.3193 " fill="none" id="Guest-to-CO" style="stroke:#181818;stroke-width:1.0;"/><polygon fill="#181818" points="146.8,216.23,138.5114,210.9103,141.8579,215.4711,137.2971,218.8176,146.8,216.23" style="stroke:#181818;stroke-width:1.0;"/></g><!--link Guest to VAD--><g id="link_Guest_VAD"><path d="M48.38,222.62 C58.93,234.06 72.59,247.08 87,256 C102.7,265.71 115.4976,271.4236 132.8176,277.1936 " fill="none" id="Guest-to-VAD" style="stroke:#181818;stroke-width:1.0;"/><polygon fill="#181818" points="138.51,279.09,131.2356,272.4505,133.7663,277.5097,128.7071,280.0404,138.51,279.09" style="stroke:#181818;stroke-width:1.0;"/></g><!--SRC=[RP3FQiCm3CRlVWgHU_e0OmpY5dfQ1plqhjfQQk9P9PRNmjYxptK6zO8DFaZwVVhpUVeG48RPZMS1wsOouZWeDC8px1D5KUg2PiAHe2inl5987Nmho2z5CXXpwUZe2kWzpCoViGECS1pUMymNEeydJ__89Xeuz4tyiCOrymHOa4BeLhjJXiZMVTROO2sCznlZtPEgtx1VaTipcOcJbEhshJ5jC8PJ4DYHv0l-pjof7wKM5_l-fJYKFpnlDiM39xe91HiVoKELN7H5g2kTVX1wIULjMwAyPXNbPNu1]--></g></svg>