<?xml version="1.0" encoding="us-ascii" standalone="no"?><svg xmlns="http://www.w3.org/2000/svg" xmlns:xlink="http://www.w3.org/1999/xlink" contentStyleType="text/css" height="300px" preserveAspectRatio="none" style="width:813px;height:300px;background:#FFFFFF;" version="1.1" viewBox="0 0 813 300" width="813px" zoomAndPan="magnify"><defs/><g><rect fill="#FFFFFF" height="29.1328" style="stroke:#181818;stroke-width:1.0;" width="10" x="338" y="112.4297"/><rect fill="#FFFFFF" height="68.2656" style="stroke:#181818;stroke-width:1.0;" width="10" x="515" y="141.5625"/><rect fill="none" height="46.2656" style="stroke:#000000;stroke-width:1.5;" width="350" x="457.5" y="156.5625"/><line style="stroke:#181818;stroke-width:0.5;stroke-dasharray:5.0,5.0;" x1="29" x2="29" y1="81.2969" y2="219.8281"/><line style="stroke:#181818;stroke-width:0.5;stroke-dasharray:5.0,5.0;" x1="171" x2="171" y1="81.2969" y2="219.8281"/><line style="stroke:#181818;stroke-width:0.5;stroke-dasharray:5.0,5.0;" x1="343" x2="343" y1="81.2969" y2="219.8281"/><line style="stroke:#181818;stroke-width:0.5;stroke-dasharray:5.0,5.0;" x1="519.5" x2="519.5" y1="81.2969" y2="219.8281"/><line style="stroke:#181818;stroke-width:0.5;stroke-dasharray:5.0,5.0;" x1="769.5" x2="769.5" y1="81.2969" y2="219.8281"/><text fill="#000000" font-family="sans-serif" font-size="14" lengthAdjust="spacing" textLength="42" x="5" y="77.9951">Guest</text><ellipse cx="29" cy="13.5" fill="#E2E2F0" rx="8" ry="8" style="stroke:#181818;stroke-width:0.5;"/><path d="M29,21.5 L29,48.5 M16,29.5 L42,29.5 M29,48.5 L16,63.5 M29,48.5 L42,63.5 " fill="none" style="stroke:#181818;stroke-width:0.5;"/><text fill="#000000" font-family="sans-serif" font-size="14" lengthAdjust="spacing" textLength="42" x="5" y="231.8232">Guest</text><ellipse cx="29" cy="243.625" fill="#E2E2F0" rx="8" ry="8" style="stroke:#181818;stroke-width:0.5;"/><path d="M29,251.625 L29,278.625 M16,259.625 L42,259.625 M29,278.625 L16,293.625 M29,278.625 L42,293.625 " fill="none" style="stroke:#181818;stroke-width:0.5;"/><rect fill="#E2E2F0" height="30.2969" rx="2.5" ry="2.5" style="stroke:#181818;stroke-width:0.5;" width="216" x="63" y="50"/><text fill="#000000" font-family="sans-serif" font-size="14" lengthAdjust="spacing" textLength="202" x="70" y="69.9951">HotelManagementApplication</text><rect fill="#E2E2F0" height="30.2969" rx="2.5" ry="2.5" style="stroke:#181818;stroke-width:0.5;" width="216" x="63" y="218.8281"/><text fill="#000000" font-family="sans-serif" font-size="14" lengthAdjust="spacing" textLength="202" x="70" y="238.8232">HotelManagementApplication</text><rect fill="#E2E2F0" height="30.2969" rx="2.5" ry="2.5" style="stroke:#181818;stroke-width:0.5;" width="56" x="315" y="50"/><text fill="#000000" font-family="sans-serif" font-size="14" lengthAdjust="spacing" textLength="42" x="322" y="69.9951">Guest</text><rect fill="#E2E2F0" height="30.2969" rx="2.5" ry="2.5" style="stroke:#181818;stroke-width:0.5;" width="56" x="315" y="218.8281"/><text fill="#000000" font-family="sans-serif" font-size="14" lengthAdjust="spacing" textLength="42" x="322" y="238.8232">Guest</text><rect fill="#E2E2F0" height="30.2969" rx="2.5" ry="2.5" style="stroke:#181818;stroke-width:0.5;" width="105" x="467.5" y="50"/><text fill="#000000" font-family="sans-serif" font-size="14" lengthAdjust="spacing" textLength="91" x="474.5" y="69.9951">RoomFacade</text><rect fill="#E2E2F0" height="30.2969" rx="2.5" ry="2.5" style="stroke:#181818;stroke-width:0.5;" width="105" x="467.5" y="218.8281"/><text fill="#000000" font-family="sans-serif" font-size="14" lengthAdjust="spacing" textLength="91" x="474.5" y="238.8232">RoomFacade</text><rect fill="#E2E2F0" height="30.2969" rx="2.5" ry="2.5" style="stroke:#181818;stroke-width:0.5;" width="55" x="742.5" y="50"/><text fill="#000000" font-family="sans-serif" font-size="14" lengthAdjust="spacing" textLength="41" x="749.5" y="69.9951">Room</text><rect fill="#E2E2F0" height="30.2969" rx="2.5" ry="2.5" style="stroke:#181818;stroke-width:0.5;" width="55" x="742.5" y="218.8281"/><text fill="#000000" font-family="sans-serif" font-size="14" lengthAdjust="spacing" textLength="41" x="749.5" y="238.8232">Room</text><rect fill="#FFFFFF" height="29.1328" style="stroke:#181818;stroke-width:1.0;" width="10" x="338" y="112.4297"/><rect fill="#FFFFFF" height="68.2656" style="stroke:#181818;stroke-width:1.0;" width="10" x="515" y="141.5625"/><polygon fill="#181818" points="326,108.4297,336,112.4297,326,116.4297,330,112.4297" style="stroke:#181818;stroke-width:1.0;"/><line style="stroke:#181818;stroke-width:1.0;" x1="171" x2="332" y1="112.4297" y2="112.4297"/><text fill="#000000" font-family="sans-serif" font-size="13" lengthAdjust="spacing" textLength="148" x="178" y="107.3638">view_available_rooms()</text><polygon fill="#181818" points="503,137.5625,513,141.5625,503,145.5625,507,141.5625" style="stroke:#181818;stroke-width:1.0;"/><line style="stroke:#181818;stroke-width:1.0;" x1="343" x2="509" y1="141.5625" y2="141.5625"/><text fill="#000000" font-family="sans-serif" font-size="13" lengthAdjust="spacing" textLength="148" x="350" y="136.4966">view_available_rooms()</text><path d="M457.5,156.5625 L534.5,156.5625 L534.5,163.6953 L524.5,173.6953 L457.5,173.6953 L457.5,156.5625 " fill="#EEEEEE" style="stroke:#000000;stroke-width:1.5;"/><rect fill="none" height="46.2656" style="stroke:#000000;stroke-width:1.5;" width="350" x="457.5" y="156.5625"/><text fill="#000000" font-family="sans-serif" font-size="13" font-weight="bold" lengthAdjust="spacing" textLength="32" x="472.5" y="169.6294">loop</text><text fill="#000000" font-family="sans-serif" font-size="11" font-weight="bold" lengthAdjust="spacing" textLength="238" x="549.5" y="168.7729">[for each available room in ArrayList]</text><polygon fill="#181818" points="758,190.8281,768,194.8281,758,198.8281,762,194.8281" style="stroke:#181818;stroke-width:1.0;"/><line style="stroke:#181818;stroke-width:1.0;" x1="525" x2="764" y1="194.8281" y2="194.8281"/><text fill="#000000" font-family="sans-serif" font-size="13" lengthAdjust="spacing" textLength="221" x="532" y="189.7622">displayRoomDetailsGuestVersion()</text><!--SRC=[TP2z2W8n3CVtFaLmqi4NS10Ev7ImomskH-n53TIsjF74jpSzGHInK-7_yKk2JcA6xOsAc8HPs772833RHI5lCU2PhXIaIScpG-4OPe05ThRvzayLasI_XIx6QuiE1vhKhlsLNu8nMWhBDLXOmSXqxt54zdZqr6TrbVd2e1CUKKWXnbPlr_ut6pFGH-3zrH5yZ0bEkhaQBl2EGeq21sXoniUUzIYWJo4LfQI1I_Bug4DlI3HLfhqFb8jUHfaK1gZbd-YkVG80]--></g></svg>