<?xml version="1.0" encoding="us-ascii" standalone="no"?><svg xmlns="http://www.w3.org/2000/svg" xmlns:xlink="http://www.w3.org/1999/xlink" contentStyleType="text/css" height="371px" preserveAspectRatio="none" style="width:1178px;height:371px;background:#FFFFFF;" version="1.1" viewBox="0 0 1178 371" width="1178px" zoomAndPan="magnify"><defs/><g><rect fill="#FFFFFF" height="168.6641" style="stroke:#181818;stroke-width:1.0;" width="10" x="460" y="112.4297"/><rect fill="#FFFFFF" height="140.5313" style="stroke:#181818;stroke-width:1.0;" width="10" x="741" y="141.5625"/><rect fill="#FFFFFF" height="73.2656" style="stroke:#181818;stroke-width:1.0;" width="10" x="746" y="207.8281"/><rect fill="none" height="46.2656" style="stroke:#000000;stroke-width:1.5;" width="489" x="683.5" y="227.8281"/><line style="stroke:#181818;stroke-width:0.5;stroke-dasharray:5.0,5.0;" x1="38" x2="38" y1="81.2969" y2="291.0938"/><line style="stroke:#181818;stroke-width:0.5;stroke-dasharray:5.0,5.0;" x1="189" x2="189" y1="81.2969" y2="291.0938"/><line style="stroke:#181818;stroke-width:0.5;stroke-dasharray:5.0,5.0;" x1="465" x2="465" y1="81.2969" y2="291.0938"/><line style="stroke:#181818;stroke-width:0.5;stroke-dasharray:5.0,5.0;" x1="745.5" x2="745.5" y1="81.2969" y2="291.0938"/><line style="stroke:#181818;stroke-width:0.5;stroke-dasharray:5.0,5.0;" x1="1134.5" x2="1134.5" y1="81.2969" y2="291.0938"/><text fill="#000000" font-family="sans-serif" font-size="14" lengthAdjust="spacing" textLength="60" x="5" y="77.9951">Manager</text><ellipse cx="38" cy="13.5" fill="#E2E2F0" rx="8" ry="8" style="stroke:#181818;stroke-width:0.5;"/><path d="M38,21.5 L38,48.5 M25,29.5 L51,29.5 M38,48.5 L25,63.5 M38,48.5 L51,63.5 " fill="none" style="stroke:#181818;stroke-width:0.5;"/><text fill="#000000" font-family="sans-serif" font-size="14" lengthAdjust="spacing" textLength="60" x="5" y="303.0889">Manager</text><ellipse cx="38" cy="314.8906" fill="#E2E2F0" rx="8" ry="8" style="stroke:#181818;stroke-width:0.5;"/><path d="M38,322.8906 L38,349.8906 M25,330.8906 L51,330.8906 M38,349.8906 L25,364.8906 M38,349.8906 L51,364.8906 " fill="none" style="stroke:#181818;stroke-width:0.5;"/><rect fill="#E2E2F0" height="30.2969" rx="2.5" ry="2.5" style="stroke:#181818;stroke-width:0.5;" width="216" x="81" y="50"/><text fill="#000000" font-family="sans-serif" font-size="14" lengthAdjust="spacing" textLength="202" x="88" y="69.9951">HotelManagementApplication</text><rect fill="#E2E2F0" height="30.2969" rx="2.5" ry="2.5" style="stroke:#181818;stroke-width:0.5;" width="216" x="81" y="290.0938"/><text fill="#000000" font-family="sans-serif" font-size="14" lengthAdjust="spacing" textLength="202" x="88" y="310.0889">HotelManagementApplication</text><rect fill="#E2E2F0" height="30.2969" rx="2.5" ry="2.5" style="stroke:#181818;stroke-width:0.5;" width="74" x="428" y="50"/><text fill="#000000" font-family="sans-serif" font-size="14" lengthAdjust="spacing" textLength="60" x="435" y="69.9951">Manager</text><rect fill="#E2E2F0" height="30.2969" rx="2.5" ry="2.5" style="stroke:#181818;stroke-width:0.5;" width="74" x="428" y="290.0938"/><text fill="#000000" font-family="sans-serif" font-size="14" lengthAdjust="spacing" textLength="60" x="435" y="310.0889">Manager</text><rect fill="#E2E2F0" height="30.2969" rx="2.5" ry="2.5" style="stroke:#181818;stroke-width:0.5;" width="105" x="693.5" y="50"/><text fill="#000000" font-family="sans-serif" font-size="14" lengthAdjust="spacing" textLength="91" x="700.5" y="69.9951">RoomFacade</text><rect fill="#E2E2F0" height="30.2969" rx="2.5" ry="2.5" style="stroke:#181818;stroke-width:0.5;" width="105" x="693.5" y="290.0938"/><text fill="#000000" font-family="sans-serif" font-size="14" lengthAdjust="spacing" textLength="91" x="700.5" y="310.0889">RoomFacade</text><rect fill="#E2E2F0" height="30.2969" rx="2.5" ry="2.5" style="stroke:#181818;stroke-width:0.5;" width="55" x="1107.5" y="50"/><text fill="#000000" font-family="sans-serif" font-size="14" lengthAdjust="spacing" textLength="41" x="1114.5" y="69.9951">Room</text><rect fill="#E2E2F0" height="30.2969" rx="2.5" ry="2.5" style="stroke:#181818;stroke-width:0.5;" width="55" x="1107.5" y="290.0938"/><text fill="#000000" font-family="sans-serif" font-size="14" lengthAdjust="spacing" textLength="41" x="1114.5" y="310.0889">Room</text><rect fill="#FFFFFF" height="168.6641" style="stroke:#181818;stroke-width:1.0;" width="10" x="460" y="112.4297"/><rect fill="#FFFFFF" height="140.5313" style="stroke:#181818;stroke-width:1.0;" width="10" x="741" y="141.5625"/><rect fill="#FFFFFF" height="73.2656" style="stroke:#181818;stroke-width:1.0;" width="10" x="746" y="207.8281"/><polygon fill="#181818" points="448,108.4297,458,112.4297,448,116.4297,452,112.4297" style="stroke:#181818;stroke-width:1.0;"/><line style="stroke:#181818;stroke-width:1.0;" x1="189" x2="454" y1="112.4297" y2="112.4297"/><text fill="#000000" font-family="sans-serif" font-size="13" lengthAdjust="spacing" textLength="252" x="196" y="107.3638">view_list_of_rooms_for_a_given_guest()</text><polygon fill="#181818" points="729,137.5625,739,141.5625,729,145.5625,733,141.5625" style="stroke:#181818;stroke-width:1.0;"/><line style="stroke:#181818;stroke-width:1.0;" x1="470" x2="735" y1="141.5625" y2="141.5625"/><text fill="#000000" font-family="sans-serif" font-size="13" lengthAdjust="spacing" textLength="252" x="477" y="136.4966">view_list_of_rooms_for_a_given_guest()</text><polygon fill="#181818" points="729,166.6953,739,170.6953,729,174.6953,733,170.6953" style="stroke:#181818;stroke-width:1.0;"/><line style="stroke:#181818;stroke-width:1.0;" x1="38" x2="735" y1="170.6953" y2="170.6953"/><text fill="#000000" font-family="sans-serif" font-size="13" lengthAdjust="spacing" textLength="207" x="45" y="165.6294">enter guest firstname, lastname</text><line style="stroke:#181818;stroke-width:1.0;" x1="751" x2="798" y1="194.8281" y2="194.8281"/><line style="stroke:#181818;stroke-width:1.0;" x1="798" x2="798" y1="194.8281" y2="207.8281"/><line style="stroke:#181818;stroke-width:1.0;" x1="757" x2="798" y1="207.8281" y2="207.8281"/><polygon fill="#181818" points="767,203.8281,757,207.8281,767,211.8281,763,207.8281" style="stroke:#181818;stroke-width:1.0;"/><text fill="#000000" font-family="sans-serif" font-size="13" lengthAdjust="spacing" textLength="365" x="763" y="189.7622">find_index_by_first_and_last_name(firstname, lastname);</text><path d="M683.5,227.8281 L760.5,227.8281 L760.5,234.9609 L750.5,244.9609 L683.5,244.9609 L683.5,227.8281 " fill="#EEEEEE" style="stroke:#000000;stroke-width:1.5;"/><rect fill="none" height="46.2656" style="stroke:#000000;stroke-width:1.5;" width="489" x="683.5" y="227.8281"/><text fill="#000000" font-family="sans-serif" font-size="13" font-weight="bold" lengthAdjust="spacing" textLength="32" x="698.5" y="240.895">loop</text><text fill="#000000" font-family="sans-serif" font-size="11" font-weight="bold" lengthAdjust="spacing" textLength="156" x="775.5" y="240.0386">[for each room of guest]</text><polygon fill="#181818" points="1123,262.0938,1133,266.0938,1123,270.0938,1127,266.0938" style="stroke:#181818;stroke-width:1.0;"/><line style="stroke:#181818;stroke-width:1.0;" x1="756" x2="1129" y1="266.0938" y2="266.0938"/><text fill="#000000" font-family="sans-serif" font-size="13" lengthAdjust="spacing" textLength="135" x="763" y="261.0278">displayRoomDetails()</text><!--SRC=[dP11QiGm34NtFeMOrGoq5vX2OQ24sNYJ2mZLKLA3npQscdPkNpb9eQ5TrM2m_R_-aqnEKW5BaIOk9bCHxtocA72u9k6mAZUESiavU4VYKpm0LRZQozw_XIoYtKjzIhUE70syg7ttMru5OpGM7f_1mXbcpnyOV1LC8nRrL1nJGSB9pnnnUkSgnvCX9tucOOKQsshxxX_5sjCsm1fn1frPBuiHHb-gHBhn0mHQJqOntx3Hnm5ryoU-td4n8-bJys8p7_y8E3tjw26b3DeYCBatQ1r36bUy0LqRJcc3hpdGlVtQ2mlvK7KGZWEq26C6_Xcxkzil]--></g></svg>