<?xml version="1.0" encoding="us-ascii" standalone="no"?><svg xmlns="http://www.w3.org/2000/svg" xmlns:xlink="http://www.w3.org/1999/xlink" contentStyleType="text/css" height="401px" preserveAspectRatio="none" style="width:995px;height:401px;background:#FFFFFF;" version="1.1" viewBox="0 0 995 401" width="995px" zoomAndPan="magnify"><defs/><g><rect fill="#FFFFFF" height="198.6641" style="stroke:#181818;stroke-width:1.0;" width="10" x="408" y="112.4297"/><rect fill="#FFFFFF" height="170.5313" style="stroke:#181818;stroke-width:1.0;" width="10" x="637" y="141.5625"/><rect fill="#FFFFFF" height="103.2656" style="stroke:#181818;stroke-width:1.0;" width="10" x="642" y="207.8281"/><rect fill="#FFFFFF" height="30" style="stroke:#181818;stroke-width:1.0;" width="10" x="946" y="266.0938"/><rect fill="none" height="76.2656" style="stroke:#000000;stroke-width:1.5;" width="409.5" x="579.5" y="227.8281"/><line style="stroke:#181818;stroke-width:0.5;stroke-dasharray:5.0,5.0;" x1="38" x2="38" y1="81.2969" y2="321.0938"/><line style="stroke:#181818;stroke-width:0.5;stroke-dasharray:5.0,5.0;" x1="189" x2="189" y1="81.2969" y2="321.0938"/><line style="stroke:#181818;stroke-width:0.5;stroke-dasharray:5.0,5.0;" x1="413" x2="413" y1="81.2969" y2="321.0938"/><line style="stroke:#181818;stroke-width:0.5;stroke-dasharray:5.0,5.0;" x1="641.5" x2="641.5" y1="81.2969" y2="321.0938"/><line style="stroke:#181818;stroke-width:0.5;stroke-dasharray:5.0,5.0;" x1="951" x2="951" y1="81.2969" y2="321.0938"/><text fill="#000000" font-family="sans-serif" font-size="14" lengthAdjust="spacing" textLength="60" x="5" y="77.9951">Manager</text><ellipse cx="38" cy="13.5" fill="#E2E2F0" rx="8" ry="8" style="stroke:#181818;stroke-width:0.5;"/><path d="M38,21.5 L38,48.5 M25,29.5 L51,29.5 M38,48.5 L25,63.5 M38,48.5 L51,63.5 " fill="none" style="stroke:#181818;stroke-width:0.5;"/><text fill="#000000" font-family="sans-serif" font-size="14" lengthAdjust="spacing" textLength="60" x="5" y="333.0889">Manager</text><ellipse cx="38" cy="344.8906" fill="#E2E2F0" rx="8" ry="8" style="stroke:#181818;stroke-width:0.5;"/><path d="M38,352.8906 L38,379.8906 M25,360.8906 L51,360.8906 M38,379.8906 L25,394.8906 M38,379.8906 L51,394.8906 " fill="none" style="stroke:#181818;stroke-width:0.5;"/><rect fill="#E2E2F0" height="30.2969" rx="2.5" ry="2.5" style="stroke:#181818;stroke-width:0.5;" width="216" x="81" y="50"/><text fill="#000000" font-family="sans-serif" font-size="14" lengthAdjust="spacing" textLength="202" x="88" y="69.9951">HotelManagementApplication</text><rect fill="#E2E2F0" height="30.2969" rx="2.5" ry="2.5" style="stroke:#181818;stroke-width:0.5;" width="216" x="81" y="320.0938"/><text fill="#000000" font-family="sans-serif" font-size="14" lengthAdjust="spacing" textLength="202" x="88" y="340.0889">HotelManagementApplication</text><rect fill="#E2E2F0" height="30.2969" rx="2.5" ry="2.5" style="stroke:#181818;stroke-width:0.5;" width="74" x="376" y="50"/><text fill="#000000" font-family="sans-serif" font-size="14" lengthAdjust="spacing" textLength="60" x="383" y="69.9951">Manager</text><rect fill="#E2E2F0" height="30.2969" rx="2.5" ry="2.5" style="stroke:#181818;stroke-width:0.5;" width="74" x="376" y="320.0938"/><text fill="#000000" font-family="sans-serif" font-size="14" lengthAdjust="spacing" textLength="60" x="383" y="340.0889">Manager</text><rect fill="#E2E2F0" height="30.2969" rx="2.5" ry="2.5" style="stroke:#181818;stroke-width:0.5;" width="105" x="589.5" y="50"/><text fill="#000000" font-family="sans-serif" font-size="14" lengthAdjust="spacing" textLength="91" x="596.5" y="69.9951">RoomFacade</text><rect fill="#E2E2F0" height="30.2969" rx="2.5" ry="2.5" style="stroke:#181818;stroke-width:0.5;" width="105" x="589.5" y="320.0938"/><text fill="#000000" font-family="sans-serif" font-size="14" lengthAdjust="spacing" textLength="91" x="596.5" y="340.0889">RoomFacade</text><rect fill="#E2E2F0" height="30.2969" rx="2.5" ry="2.5" style="stroke:#181818;stroke-width:0.5;" width="56" x="923" y="50"/><text fill="#000000" font-family="sans-serif" font-size="14" lengthAdjust="spacing" textLength="42" x="930" y="69.9951">Guest</text><rect fill="#E2E2F0" height="30.2969" rx="2.5" ry="2.5" style="stroke:#181818;stroke-width:0.5;" width="56" x="923" y="320.0938"/><text fill="#000000" font-family="sans-serif" font-size="14" lengthAdjust="spacing" textLength="42" x="930" y="340.0889">Guest</text><rect fill="#FFFFFF" height="198.6641" style="stroke:#181818;stroke-width:1.0;" width="10" x="408" y="112.4297"/><rect fill="#FFFFFF" height="170.5313" style="stroke:#181818;stroke-width:1.0;" width="10" x="637" y="141.5625"/><rect fill="#FFFFFF" height="103.2656" style="stroke:#181818;stroke-width:1.0;" width="10" x="642" y="207.8281"/><rect fill="#FFFFFF" height="30" style="stroke:#181818;stroke-width:1.0;" width="10" x="946" y="266.0938"/><polygon fill="#181818" points="396,108.4297,406,112.4297,396,116.4297,400,112.4297" style="stroke:#181818;stroke-width:1.0;"/><line style="stroke:#181818;stroke-width:1.0;" x1="189" x2="402" y1="112.4297" y2="112.4297"/><text fill="#000000" font-family="sans-serif" font-size="13" lengthAdjust="spacing" textLength="200" x="196" y="107.3638">view_guests_in_specific_room()</text><polygon fill="#181818" points="625,137.5625,635,141.5625,625,145.5625,629,141.5625" style="stroke:#181818;stroke-width:1.0;"/><line style="stroke:#181818;stroke-width:1.0;" x1="418" x2="631" y1="141.5625" y2="141.5625"/><text fill="#000000" font-family="sans-serif" font-size="13" lengthAdjust="spacing" textLength="200" x="425" y="136.4966">view_guests_in_specific_room()</text><polygon fill="#181818" points="625,166.6953,635,170.6953,625,174.6953,629,170.6953" style="stroke:#181818;stroke-width:1.0;"/><line style="stroke:#181818;stroke-width:1.0;" x1="38" x2="631" y1="170.6953" y2="170.6953"/><text fill="#000000" font-family="sans-serif" font-size="13" lengthAdjust="spacing" textLength="126" x="45" y="165.6294">enter room number</text><line style="stroke:#181818;stroke-width:1.0;" x1="647" x2="694" y1="194.8281" y2="194.8281"/><line style="stroke:#181818;stroke-width:1.0;" x1="694" x2="694" y1="194.8281" y2="207.8281"/><line style="stroke:#181818;stroke-width:1.0;" x1="653" x2="694" y1="207.8281" y2="207.8281"/><polygon fill="#181818" points="663,203.8281,653,207.8281,663,211.8281,659,207.8281" style="stroke:#181818;stroke-width:1.0;"/><text fill="#000000" font-family="sans-serif" font-size="13" lengthAdjust="spacing" textLength="285" x="659" y="189.7622">find_index_by_room_number(room_number)</text><path d="M579.5,227.8281 L656.5,227.8281 L656.5,234.9609 L646.5,244.9609 L579.5,244.9609 L579.5,227.8281 " fill="#EEEEEE" style="stroke:#000000;stroke-width:1.5;"/><rect fill="none" height="76.2656" style="stroke:#000000;stroke-width:1.5;" width="409.5" x="579.5" y="227.8281"/><text fill="#000000" font-family="sans-serif" font-size="13" font-weight="bold" lengthAdjust="spacing" textLength="32" x="594.5" y="240.895">loop</text><text fill="#000000" font-family="sans-serif" font-size="11" font-weight="bold" lengthAdjust="spacing" textLength="155" x="671.5" y="240.0386">[for each guest in room]</text><polygon fill="#181818" points="934,262.0938,944,266.0938,934,270.0938,938,266.0938" style="stroke:#181818;stroke-width:1.0;"/><line style="stroke:#181818;stroke-width:1.0;" x1="652" x2="940" y1="266.0938" y2="266.0938"/><text fill="#000000" font-family="sans-serif" font-size="13" lengthAdjust="spacing" textLength="86" x="659" y="261.0278">show_name()</text><!--SRC=[bP2nZiCW341tliBgr1lk1pfKwf9qOSaF81USrb9YK4BRkxy_GtgdCXuJvjdFnkXpNC2Yu9KMat39x3cXPDYTOwPf8pD9FgKqiSVCKNQ0AvpjgSr_IIgqBHfYd3lq6AZIeMjnVwSrLz8RerxuF8A50poOdkvQuEfOt9h8yyZUBQhRVnZqcH-OIRiPMsg6xXz5EiHhugtq0Ff93KeUo7s-w3vK-AiTMOBw0dsvotULkIrf_tPlzLEC2KPTBw6_GHq9M6e30tesUw_ozHQVJd0c7R2GFulk8z1RH1AWQ9jdRTN4zWS0]--></g></svg>